# Blender 5.0.1
# www.blender.org
mtllib axe.mtl
o Cylinder
v 0.000000 0.040281 -0.532869
v 0.000000 0.040281 0.532869
v 0.034884 0.020140 -0.532869
v 0.034884 0.020140 0.532869
v 0.034884 -0.020140 -0.532869
v 0.034884 -0.020140 0.532869
v 0.000000 -0.040281 -0.532869
v 0.000000 -0.040281 0.532869
v -0.034884 -0.020140 -0.532869
v -0.034884 -0.020140 0.532869
v -0.034884 0.020140 -0.532869
v -0.034884 0.020140 0.532869
v 0.000000 0.040281 -0.299525
v 0.000000 0.040281 -0.086377
v 0.000000 0.040281 0.126770
v 0.000000 0.040281 0.339918
v 0.034884 0.020140 0.339918
v 0.034884 0.020140 0.126770
v 0.034884 0.020140 -0.086377
v 0.034884 0.020140 -0.299525
v 0.034884 -0.020140 0.339918
v 0.034884 -0.020140 0.126770
v 0.034884 -0.020140 -0.086377
v 0.034884 -0.020140 -0.299525
v 0.000000 -0.040281 0.339918
v 0.000000 -0.040281 0.126770
v 0.000000 -0.040281 -0.086377
v 0.000000 -0.040281 -0.299525
v -0.034884 -0.020140 0.339918
v -0.034884 -0.020140 0.126770
v -0.034884 -0.020140 -0.086377
v -0.034884 -0.020140 -0.299525
v -0.034884 0.020140 0.339918
v -0.034884 0.020140 0.126770
v -0.034884 0.020140 -0.086377
v -0.034884 0.020140 -0.299525
v -0.250701 -0.010840 -0.216351
v -0.250701 -0.010840 -0.616043
v -0.250701 0.010840 -0.616043
v -0.250701 0.010840 -0.216351
v -0.300504 0.000000 -0.310883
v -0.300504 0.000000 -0.521511
v -0.120953 0.022234 -0.543456
v -0.120953 0.022234 -0.288938
v -0.120953 -0.022234 -0.543456
v -0.120953 -0.022234 -0.288938
vn 0.5000 0.8660 -0.0000
vn 1.0000 -0.0000 -0.0000
vn 0.5000 -0.8660 -0.0000
vn -0.5000 -0.8660 -0.0000
vn -0.0000 -0.0000 1.0000
vn -1.0000 -0.0000 -0.0000
vn -0.5000 0.8660 -0.0000
vn -0.0000 -0.0000 -1.0000
vn -0.0875 0.9962 -0.0000
vn -0.2127 0.9771 -0.0000
vn 0.4882 -0.0000 -0.8727
vn 0.4882 -0.0000 0.8727
vn -0.0875 -0.9962 -0.0000
vn 0.0243 -0.9997 -0.0000
vn -0.2127 -0.9771 -0.0000
vn -0.8847 -0.0000 0.4661
vn -0.8847 -0.0000 -0.4661
vn 0.1221 -0.0000 0.9925
vn 0.1221 -0.0000 -0.9925
vn 0.0243 0.9997 -0.0000
vt 1.000000 0.909475
vt 1.000000 1.000000
vt 0.833333 1.000000
vt 0.833333 0.909475
vt 0.666667 1.000000
vt 0.666667 0.909475
vt 0.500000 1.000000
vt 0.500000 0.909475
vt 0.333333 1.000000
vt 0.333333 0.909475
vt 0.457846 0.370000
vt 0.250000 0.490000
vt 0.042154 0.370000
vt 0.042154 0.130000
vt 0.250000 0.010000
vt 0.457846 0.130000
vt 0.166667 1.000000
vt 0.166667 0.909475
vt -0.000000 1.000000
vt -0.000000 0.909475
vt 0.750000 0.490000
vt 0.957846 0.370000
vt 0.957846 0.130000
vt 0.750000 0.010000
vt 0.542154 0.130000
vt 0.542154 0.370000
vt 0.166667 0.500000
vt 0.166667 0.609475
vt -0.000000 0.609475
vt -0.000000 0.500000
vt 0.166667 0.709475
vt -0.000000 0.709475
vt 0.166667 0.809475
vt -0.000000 0.809475
vt 0.333333 0.609475
vt 0.333333 0.709475
vt 0.333333 0.809475
vt 0.500000 0.500000
vt 0.500000 0.609475
vt 0.333333 0.500000
vt 0.500000 0.709475
vt 0.500000 0.809475
vt 0.666667 0.500000
vt 0.666667 0.609475
vt 0.666667 0.709475
vt 0.666667 0.809475
vt 0.833333 0.500000
vt 0.833333 0.609475
vt 0.833333 0.709475
vt 0.833333 0.809475
vt 1.000000 0.500000
vt 1.000000 0.609475
vt 1.000000 0.709475
vt 1.000000 0.809475
s 0
f 16/1/1 2/2/1 4/3/1 17/4/1
f 17/4/2 4/3/2 6/5/2 21/6/2
f 21/6/3 6/5/3 8/7/3 25/8/3
f 25/8/4 8/7/4 10/9/4 29/10/4
f 4/11/5 2/12/5 12/13/5 10/14/5 8/15/5 6/16/5
f 29/10/6 10/9/6 12/17/6 33/18/6
f 33/18/7 12/17/7 2/19/7 16/20/7
f 1/21/8 3/22/8 5/23/8 7/24/8 9/25/8 11/26/8
f 11/27/7 36/28/7 13/29/7 1/30/7
f 36/28/7 35/31/7 14/32/7 13/29/7
f 35/31/7 34/33/7 15/34/7 14/32/7
f 34/33/7 33/18/7 16/20/7 15/34/7
f 44/28/9 43/27/9 39/27/9 40/28/9
f 32/35/6 31/36/6 35/31/6 36/28/6
f 31/36/6 30/37/6 34/33/6 35/31/6
f 30/37/6 29/10/6 33/18/6 34/33/6
f 7/38/4 28/39/4 32/35/4 9/40/4
f 28/39/4 27/41/4 31/36/4 32/35/4
f 27/41/4 26/42/4 30/37/4 31/36/4
f 26/42/4 25/8/4 29/10/4 30/37/4
f 5/43/3 24/44/3 28/39/3 7/38/3
f 24/44/3 23/45/3 27/41/3 28/39/3
f 23/45/3 22/46/3 26/42/3 27/41/3
f 22/46/3 21/6/3 25/8/3 26/42/3
f 3/47/2 20/48/2 24/44/2 5/43/2
f 20/48/2 19/49/2 23/45/2 24/44/2
f 19/49/2 18/50/2 22/46/2 23/45/2
f 18/50/2 17/4/2 21/6/2 22/46/2
f 1/51/1 13/52/1 20/48/1 3/47/1
f 13/52/1 14/53/1 19/49/1 20/48/1
f 14/53/1 15/54/1 18/50/1 19/49/1
f 15/54/1 16/1/1 17/4/1 18/50/1
f 40/28/10 39/27/10 42/27/10 41/28/10
f 43/26/11 45/25/11 38/25/11 39/26/11
f 46/35/12 44/28/12 40/28/12 37/35/12
f 45/40/13 46/35/13 37/35/13 38/40/13
f 9/40/14 32/35/14 46/35/14 45/40/14
f 38/40/15 37/35/15 41/35/15 42/40/15
f 37/35/16 40/28/16 41/35/16
f 39/26/17 38/25/17 42/26/17
f 32/35/18 36/28/18 44/28/18 46/35/18
f 11/26/19 9/25/19 45/25/19 43/26/19
f 36/28/20 11/27/20 43/27/20 44/28/20
