# Blender 5.0.1
# www.blender.org
mtllib Bumper.mtl
o Sphere
v 0.000000 0.044887 0.000000
v 0.000000 0.039925 -0.036035
v 0.000000 0.034429 -0.047082
v 0.000000 0.027945 -0.050961
v -0.028272 0.025195 -0.000000
v -0.027819 0.013640 -0.000000
v 0.013790 0.043598 -0.013790
v 0.025480 0.039925 -0.025480
v 0.033292 0.034429 -0.033292
v 0.036035 0.027945 -0.036035
v 0.028272 0.025195 -0.000000
v 0.027819 0.013640 -0.000000
v 0.019991 0.025195 0.019991
v 0.019502 0.043598 0.000000
v 0.036035 0.039925 0.000000
v 0.047082 0.034429 0.000000
v 0.050961 0.027945 0.000000
v 0.019671 0.013640 0.019671
v -0.019671 0.013640 0.019671
v -0.019991 0.025195 0.019991
v 0.013790 0.043598 0.013790
v 0.025480 0.039925 0.025480
v 0.033292 0.034429 0.033292
v 0.036035 0.027945 0.036035
v 0.000000 0.025195 0.028272
v 0.000000 0.013640 0.027819
v -0.019671 0.013640 -0.019671
v 0.000000 0.043598 0.019502
v 0.000000 0.039925 0.036035
v 0.000000 0.034429 0.047082
v 0.000000 0.027945 0.050961
v -0.019991 0.025195 -0.019991
v 0.000000 0.013640 -0.027819
v 0.000000 0.025195 -0.028272
v -0.013790 0.043598 0.013790
v -0.025480 0.039925 0.025480
v -0.033292 0.034429 0.033292
v -0.036035 0.027945 0.036035
v 0.019991 0.025195 -0.019991
v 0.019671 0.013640 -0.019671
v -0.019671 -0.000068 -0.019671
v -0.019502 0.043598 0.000000
v -0.036035 0.039925 0.000000
v -0.047082 0.034429 0.000000
v -0.050961 0.027945 0.000000
v -0.027819 -0.000068 -0.000000
v -0.019671 -0.000068 0.019671
v 0.000000 -0.000068 0.027819
v -0.013790 0.043598 -0.013790
v -0.025480 0.039925 -0.025480
v -0.033292 0.034429 -0.033292
v -0.036035 0.027945 -0.036035
v 0.019671 -0.000068 0.019671
v 0.027819 -0.000068 -0.000000
v 0.019671 -0.000068 -0.019671
v 0.000000 0.043598 -0.019502
v 0.000000 -0.000068 -0.027819
vn -0.0000 0.7009 -0.7133
vn -0.0000 0.9330 -0.3599
vn 0.2545 0.9330 -0.2545
vn 0.5044 0.7009 -0.5044
vn -0.0000 0.9871 -0.1604
vn -0.0000 1.0000 -0.0000
vn 0.1134 0.9871 -0.1134
vn 0.7066 -0.0392 -0.7066
vn 0.9992 -0.0392 -0.0000
vn 0.9998 -0.0197 -0.0000
vn 0.7070 -0.0197 -0.7070
vn -0.0000 0.5134 -0.8581
vn 0.6068 0.5134 -0.6068
vn 0.3599 0.9330 -0.0000
vn 0.7133 0.7009 -0.0000
vn 0.1604 0.9871 -0.0000
vn 0.0851 -0.9927 -0.0851
vn 0.1203 -0.9927 -0.0000
vn -0.7066 -0.0392 -0.7066
vn -0.0000 -0.0392 -0.9992
vn -0.0000 -0.0197 -0.9998
vn -0.7070 -0.0197 -0.7070
vn 0.8581 0.5134 -0.0000
vn -0.0851 -0.9927 -0.0851
vn -0.0000 -0.9927 -0.1203
vn -0.1203 -0.9927 -0.0000
vn 0.0851 -0.9927 0.0851
vn -0.0000 -0.9927 0.1203
vn 0.5044 0.7009 0.5044
vn 0.6068 0.5134 0.6068
vn 0.1134 0.9871 0.1134
vn 0.2545 0.9330 0.2545
vn -0.0000 -0.0392 0.9992
vn -0.7066 -0.0392 0.7066
vn -0.7070 -0.0197 0.7070
vn -0.0000 -0.0197 0.9998
vn 0.7066 -0.0392 0.7066
vn 0.7070 -0.0197 0.7070
vn -0.0000 0.9871 0.1604
vn -0.0000 0.9330 0.3599
vn -0.0851 -0.9927 0.0851
vn -0.0000 0.7009 0.7133
vn -0.0000 0.5134 0.8581
vn 1.0000 -0.0000 -0.0000
vn 0.7071 -0.0000 -0.7071
vn -0.0000 -1.0000 -0.0000
vn -0.2545 0.9330 0.2545
vn -0.5044 0.7009 0.5044
vn -0.1134 0.9871 0.1134
vn -0.9992 -0.0392 -0.0000
vn -0.9998 -0.0197 -0.0000
vn -0.0000 -0.0000 -1.0000
vn -0.6068 0.5134 0.6068
vn -0.1604 0.9871 -0.0000
vn -1.0000 -0.0000 -0.0000
vn -0.7071 -0.0000 0.7071
vn -0.7133 0.7009 -0.0000
vn -0.8581 0.5134 -0.0000
vn -0.3599 0.9330 -0.0000
vn -0.7071 -0.0000 -0.7071
vn -0.0000 -0.0000 1.0000
vn 0.7071 -0.0000 0.7071
vn -0.5044 0.7009 -0.5044
vn -0.6068 0.5134 -0.6068
vn -0.1134 0.9871 -0.1134
vn -0.2545 0.9330 -0.2545
vt 0.144447 0.952746
vt 0.165416 0.902124
vt 0.302213 0.902123
vt 0.323181 0.952746
vt 0.196797 0.826362
vt 0.233814 0.736995
vt 0.270831 0.826362
vt 0.906109 0.385122
vt 0.906857 0.492448
vt 0.850542 0.491980
vt 0.849806 0.386375
vt 0.725450 0.776204
vt 0.692542 0.758428
vt 0.711986 0.632044
vt 0.746496 0.639407
vt 0.398943 0.805393
vt 0.449565 0.826362
vt 0.323181 0.774012
vt 0.348320 0.485117
vt 0.154860 0.485117
vt 0.197926 0.381147
vt 0.305255 0.381147
vt 0.644731 0.680363
vt 0.645478 0.787689
vt 0.589163 0.787221
vt 0.588427 0.681616
vt 0.711986 0.453310
vt 0.746496 0.445947
vt 0.485117 0.154860
vt 0.485117 0.348320
vt 0.381147 0.305255
vt 0.381147 0.197926
vt 0.348320 0.018063
vt 0.305255 0.122033
vt 0.917256 0.309150
vt 0.860774 0.311621
vt 0.018063 0.348320
vt 0.018063 0.154860
vt 0.122033 0.197926
vt 0.122033 0.305255
vt 0.692542 0.326926
vt 0.725450 0.309150
vt 0.323181 0.699978
vt 0.398943 0.668597
vt 0.532920 0.385043
vt 0.521244 0.309150
vt 0.577742 0.311227
vt 0.589231 0.385903
vt 0.532920 0.492371
vt 0.589231 0.491511
vt 0.449565 0.647628
vt 0.270831 0.647628
vt 0.302213 0.571867
vt 0.154860 0.018063
vt 0.197926 0.122033
vt 0.323181 0.521244
vt 0.521244 0.568264
vt 0.577742 0.566187
vt 0.816595 0.859502
vt 0.782623 0.849959
vt 0.793990 0.671587
vt 0.828898 0.666434
vt 0.783359 0.492448
vt 0.782623 0.386843
vt 0.776204 0.198347
vt 0.701528 0.273023
vt 0.595920 0.273023
vt 0.521244 0.198347
vt 0.521244 0.092739
vt 0.595920 0.018063
vt 0.701528 0.018063
vt 0.776204 0.092739
vt 0.165416 0.571867
vt 0.144447 0.521244
vt 0.196797 0.647628
vt 0.812331 0.018063
vt 0.919659 0.018063
vt 0.918799 0.074374
vt 0.813191 0.074374
vt 0.793591 0.312089
vt 0.782623 0.544223
vt 0.816595 0.528575
vt 0.144447 0.699978
vt 0.918799 0.141559
vt 0.813191 0.141559
vt 0.898997 0.859502
vt 0.865025 0.849959
vt 0.876392 0.671587
vt 0.911300 0.666434
vt 0.068686 0.668597
vt 0.599396 0.606862
vt 0.521244 0.682084
vt 0.532212 0.607330
vt 0.521980 0.787689
vt 0.018063 0.647628
vt 0.656416 0.385903
vt 0.656416 0.491511
vt 0.865025 0.544223
vt 0.898997 0.528575
vt 0.144447 0.774012
vt 0.068686 0.805393
vt 0.644927 0.311227
vt 0.644927 0.566187
vt 0.018063 0.826362
vt 0.655878 0.604391
vt 0.981937 0.722035
vt 0.947427 0.714672
vt 0.947427 0.535938
vt 0.981937 0.528575
s 1
usemtl Sphere
f 3/1/1 2/2/2 8/3/3 9/4/4
f 56/5/5 1/6/6 7/7/7
f 39/8/8 11/9/9 12/10/10 40/11/11
f 4/12/12 3/13/1 9/14/4 10/15/13
f 2/2/2 56/5/5 7/7/7 8/3/3
f 9/4/4 8/3/3 15/16/14 16/17/15
f 7/7/7 1/6/6 14/18/16
f 10/19/17 17/20/18 11/21/18 39/22/17
f 32/23/19 34/24/20 33/25/21 27/26/22
f 10/15/13 9/14/4 16/27/15 17/28/23
f 8/3/3 7/7/7 14/18/16 15/16/14
f 52/29/24 4/30/25 34/31/25 32/32/24
f 45/33/26 52/29/24 32/32/24 5/34/26
f 34/35/20 39/8/8 40/11/11 33/36/21
f 24/37/27 31/38/28 25/39/28 13/40/27
f 17/28/23 16/27/15 23/41/29 24/42/30
f 15/16/14 14/18/16 21/43/31 22/44/32
f 25/45/33 20/46/34 19/47/35 26/48/36
f 13/49/37 25/45/33 26/48/36 18/50/38
f 16/17/15 15/16/14 22/44/32 23/51/29
f 14/18/16 1/6/6 21/43/31
f 22/44/32 21/43/31 28/52/39 29/53/40
f 17/20/18 24/37/27 13/40/27 11/21/18
f 31/38/28 38/54/41 20/55/41 25/39/28
f 23/51/29 22/44/32 29/53/40 30/56/42
f 21/43/31 1/6/6 28/52/39
f 4/30/25 10/19/17 39/22/17 34/31/25
f 11/57/9 13/49/37 18/50/38 12/58/10
f 24/59/30 23/60/29 30/61/42 31/62/43
f 40/11/11 12/10/10 54/63/44 55/64/45
f 41/65/46 57/66/46 55/67/46 54/68/46 53/69/46 48/70/46 47/71/46 46/72/46
f 30/56/42 29/53/40 36/73/47 37/74/48
f 28/52/39 1/6/6 35/75/49
f 20/76/34 5/77/50 6/78/51 19/79/35
f 33/36/21 40/11/11 55/64/45 57/80/52
f 31/62/43 30/61/42 37/81/48 38/82/53
f 29/53/40 28/52/39 35/75/49 36/73/47
f 35/75/49 1/6/6 42/83/54
f 38/54/41 45/33/26 5/34/26 20/55/41
f 19/79/35 6/78/51 46/84/55 47/85/56
f 38/86/53 37/87/48 44/88/57 45/89/58
f 36/73/47 35/75/49 42/83/54 43/90/59
f 6/91/51 27/26/22 41/92/60 46/93/55
f 27/26/22 33/25/21 57/94/52 41/92/60
f 37/74/48 36/73/47 43/90/59 44/95/57
f 18/50/38 26/48/36 48/96/61 53/97/62
f 45/89/58 44/88/57 51/98/63 52/99/64
f 43/90/59 42/83/54 49/100/65 50/101/66
f 26/48/36 19/47/35 47/102/56 48/96/61
f 12/58/10 18/50/38 53/97/62 54/103/44
f 44/95/57 43/90/59 50/101/66 51/104/63
f 42/83/54 1/6/6 49/100/65
f 5/105/50 32/23/19 27/26/22 6/91/51
f 51/104/63 50/101/66 2/2/2 3/1/1
f 49/100/65 1/6/6 56/5/5
f 52/106/64 51/107/63 3/108/1 4/109/12
f 50/101/66 49/100/65 56/5/5 2/2/2
