# Blender 5.1.0
# www.blender.org
mtllib door.mtl
o door
v -0.050000 0.000008 -0.000007
v -0.050000 3.970008 -0.000007
v -0.050000 0.000008 -1.970007
v -0.050000 3.970008 -1.970007
v 0.050000 0.000008 -0.000007
v 0.050000 3.970008 -0.000007
v 0.050000 0.000008 -1.970007
v 0.050000 3.970008 -1.970007
v -0.266164 1.687795 -1.665931
v -0.266164 1.767047 -1.586679
v -0.345415 1.767047 -1.665931
v -0.266164 1.947825 -1.586679
v -0.266164 2.027076 -1.665931
v -0.345415 1.947825 -1.665931
v -0.266164 1.687795 -1.846709
v -0.345415 1.767047 -1.846709
v -0.266164 1.767047 -1.925960
v -0.266164 2.027076 -1.846709
v -0.266164 1.947825 -1.925960
v -0.345415 1.947825 -1.846709
v -0.085386 1.687795 -1.665931
v -0.006134 1.767047 -1.665931
v -0.085386 1.767047 -1.586679
v -0.085386 2.027076 -1.665931
v -0.085386 1.947825 -1.586679
v -0.006134 1.947825 -1.665931
v -0.085386 1.687795 -1.846709
v -0.085386 1.767047 -1.925960
v -0.006134 1.767047 -1.846709
v -0.085386 2.027076 -1.846709
v -0.006134 1.947825 -1.846709
v -0.085386 1.947825 -1.925960
vn -1.0000 -0.0000 -0.0000
vn -0.0000 -0.0000 -1.0000
vn -0.0000 -0.0000 1.0000
vn -0.0000 -1.0000 -0.0000
vn -0.0000 1.0000 -0.0000
vn -0.5774 -0.5773 0.5773
vn -0.5774 0.5774 0.5774
vn -0.5774 -0.5774 -0.5773
vn -0.5773 0.5774 -0.5773
vn 0.5774 -0.5774 0.5773
vn 0.5773 0.5774 0.5773
vn 0.5774 -0.5774 -0.5773
vn 0.5773 0.5774 -0.5773
vn -0.7071 -0.7071 -0.0000
vn -0.7071 -0.0000 0.7071
vn -0.7071 0.7071 -0.0000
vn -0.7071 -0.0000 -0.7071
vn -0.0000 -0.7071 -0.7071
vn -0.0000 0.7071 -0.7071
vn 0.7071 -0.0000 -0.7071
vn 0.7071 -0.7071 -0.0000
vn 0.7071 0.7071 -0.0000
vn 0.7071 -0.0000 0.7071
vn -0.0000 -0.7071 0.7071
vn -0.0000 0.7071 0.7071
vt 0.024071 0.975929
vt 0.024071 0.024071
vt 0.496404 0.024071
vt 0.496404 0.975929
vt 0.520380 0.024071
vt 0.520380 0.975929
vt 0.000095 0.975929
vt 0.000094 0.024071
vt 0.496404 0.999906
vt 0.024071 0.999906
vt 0.496404 0.000094
vt 0.024071 0.000094
vt 0.689189 0.141184
vt 0.668647 0.161987
vt 0.663597 0.137795
vt 0.624684 0.162676
vt 0.604011 0.142190
vt 0.628342 0.136978
vt 0.687651 0.097321
vt 0.663320 0.102534
vt 0.666978 0.076836
vt 0.602473 0.098328
vt 0.623015 0.077525
vt 0.628065 0.101716
vt 0.722743 0.174318
vt 0.730488 0.202509
vt 0.702201 0.195121
vt 0.570969 0.175535
vt 0.591642 0.196020
vt 0.563564 0.203680
vt 0.720693 0.063977
vt 0.700020 0.043492
vt 0.728097 0.035831
vt 0.568919 0.065194
vt 0.561174 0.037003
vt 0.589461 0.044391
vt 0.621899 0.006306
vt 0.665862 0.005617
vt 0.666289 0.032873
vt 0.622326 0.033562
vt 0.733052 0.139646
vt 0.731513 0.095783
vt 0.758707 0.094830
vt 0.760246 0.138692
vt 0.558610 0.099866
vt 0.560148 0.143728
vt 0.532954 0.144682
vt 0.531416 0.100819
vt 0.625373 0.206639
vt 0.669336 0.205950
vt 0.669763 0.233206
vt 0.625800 0.233895
s 0
usemtl Material
f 1/1/1 2/2/1 4/3/1 3/4/1
f 3/4/2 4/3/2 8/5/2 7/6/2
f 5/7/3 6/8/3 2/2/3 1/1/3
f 3/4/4 7/9/4 5/10/4 1/1/4
f 8/11/5 4/3/5 2/2/5 6/12/5
f 9/13/6 10/14/6 11/15/6
f 12/16/7 13/17/7 14/18/7
f 15/19/8 16/20/8 17/21/8
f 18/22/9 19/23/9 20/24/9
f 21/25/10 22/26/10 23/27/10
f 24/28/11 25/29/11 26/30/11
f 27/31/12 28/32/12 29/33/12
f 30/34/13 31/35/13 32/36/13
f 15/19/14 9/13/14 11/15/14 16/20/14
f 10/14/15 12/16/15 14/18/15 11/15/15
f 13/17/16 18/22/16 20/24/16 14/18/16
f 19/23/17 17/21/17 16/20/17 20/24/17
f 27/31/18 15/19/18 17/21/18 28/32/18
f 18/22/19 30/34/19 32/36/19 19/23/19
f 31/37/20 29/38/20 28/39/20 32/40/20
f 21/41/21 27/42/21 29/43/21 22/44/21
f 30/45/22 24/46/22 26/47/22 31/48/22
f 25/49/23 23/50/23 22/51/23 26/52/23
f 9/13/24 21/25/24 23/27/24 10/14/24
f 24/28/25 13/17/25 12/16/25 25/29/25
f 15/19/4 27/42/4 21/41/4 9/13/4
f 11/15/1 14/18/1 20/24/1 16/20/1
f 23/50/3 25/49/3 12/16/3 10/14/3
f 30/45/5 18/22/5 13/17/5 24/46/5
f 17/21/2 19/23/2 32/40/2 28/39/2
