# Blender 5.0.1
# www.blender.org
mtllib Flipper.mtl
o Cube
v -0.419340 0.474706 0.715649
v -0.419340 0.886774 0.710933
v -0.419340 0.613928 -0.715649
v -0.419340 1.101934 -0.710933
v 0.419340 0.474706 0.715649
v 0.419340 0.886774 0.710933
v 0.419340 0.613928 -0.715649
v 0.419340 1.101934 -0.710933
v -0.394453 0.611247 -0.638764
v -0.394453 0.485140 0.645710
v -0.419340 0.894241 0.658316
v -0.419340 1.094312 -0.651432
v 0.394453 0.485140 0.645710
v 0.394453 0.611247 -0.638764
v 0.419340 1.094312 -0.651432
v 0.419340 0.894241 0.658316
v 0.357492 0.613928 -0.715649
v -0.357492 0.613928 -0.715649
v -0.344063 0.475805 0.690603
v 0.344063 0.475805 0.690603
v 0.357492 0.886774 0.710933
v -0.357492 0.886774 0.710933
v -0.342179 0.910457 -0.376201
v 0.342179 0.910457 -0.376201
v -0.342179 0.758750 0.634720
v 0.342179 0.758750 0.634720
v 0.357492 0.607987 -0.652966
v -0.357492 0.607987 -0.652966
v 0.357492 0.479090 0.659926
v -0.357492 0.479090 0.659926
v -0.419340 0.000105 0.659840
v -0.419340 -0.000105 0.715735
v -0.357492 0.000257 -0.715789
v -0.419340 0.000257 -0.715789
v 0.419340 -0.000257 -0.652827
v 0.419340 0.000257 -0.715789
v 0.357492 -0.000105 0.715735
v 0.419340 -0.000105 0.715735
v -0.419340 -0.000257 -0.652827
v 0.419340 0.000105 0.659840
v -0.357492 -0.000257 -0.652827
v -0.357492 0.000105 0.659840
v 0.357492 0.000257 -0.715789
v -0.357492 -0.000105 0.715735
v 0.357492 -0.000257 -0.652827
v 0.357492 0.000105 0.659840
v -0.357492 0.894241 0.658316
v 0.357492 0.894241 0.658316
v -0.419340 0.822779 0.711666
v -0.419340 1.026146 -0.711666
v 0.419340 1.026146 -0.711666
v 0.419340 0.822779 0.711666
v 0.394453 1.011850 -0.637500
v 0.394453 0.826922 0.644385
v -0.394453 0.826922 0.644385
v -0.394453 1.011850 -0.637500
v 0.344063 0.815573 0.686785
v -0.344063 0.815573 0.686785
v -0.357492 1.026146 -0.711666
v 0.357492 1.026146 -0.711666
v -0.357492 0.474706 0.715649
v 0.357492 0.474706 0.715649
v 0.357492 0.822779 0.711666
v -0.357492 0.822779 0.711666
v -0.419340 0.607987 -0.652966
v -0.419340 0.479090 0.659925
v 0.419340 0.479090 0.659925
v 0.419340 0.607987 -0.652966
v 0.419340 1.018784 -0.651670
v 0.419340 0.829767 0.658566
v -0.419340 0.829767 0.658566
v -0.419340 1.018784 -0.651670
v -0.357492 1.101934 -0.710933
v 0.357492 1.101934 -0.710933
v -0.357492 1.053156 -0.399797
v 0.357492 1.053156 -0.399797
v -0.416154 0.809693 0.542322
v 0.416154 0.809693 0.542322
v -0.416154 0.795079 0.548375
v 0.416154 0.795079 0.548375
v -0.416154 0.789026 0.562989
v 0.416154 0.789026 0.562989
v -0.416154 0.795079 0.577603
v 0.416154 0.795079 0.577603
v -0.416154 0.809693 0.583656
v 0.416154 0.809693 0.583656
v -0.416154 0.824307 0.577603
v 0.416154 0.824307 0.577603
v -0.416154 0.830360 0.562989
v 0.416154 0.830360 0.562989
v -0.416154 0.824307 0.548375
v 0.416154 0.824307 0.548375
v -0.376233 0.809693 0.542322
v 0.376233 0.809693 0.542322
v 0.376233 0.795079 0.548375
v -0.376233 0.795079 0.548375
v 0.376233 0.789026 0.562989
v -0.376233 0.789026 0.562989
v 0.376233 0.795079 0.577603
v -0.376233 0.795079 0.577603
v 0.376233 0.809693 0.583656
v -0.376233 0.809693 0.583656
v 0.376233 0.824307 0.577603
v -0.376233 0.824307 0.577603
v 0.376233 0.830360 0.562989
v -0.376233 0.830360 0.562989
v 0.376233 0.824307 0.548375
v -0.376233 0.824307 0.548375
v -0.357492 1.092606 -0.651430
v 0.357492 1.092606 -0.651430
v 0.419340 1.055825 -0.399480
v -0.419340 1.055911 -0.400044
v 0.394453 0.976623 -0.393318
v 0.419340 0.981937 -0.396248
v 0.394453 0.587660 -0.398514
v -0.419340 0.982544 -0.400461
v -0.394453 0.977501 -0.399403
v -0.357492 0.582764 -0.396059
v -0.394453 0.587476 -0.396637
v 0.357492 0.582993 -0.398393
v -0.419340 1.789073 -0.651432
v -0.419340 1.796695 -0.710933
v 0.357492 1.796695 -0.710933
v 0.419340 1.796695 -0.710933
v -0.419340 1.750672 -0.400044
v 0.419340 1.789073 -0.651432
v -0.357492 1.796695 -0.710933
v 0.357492 1.787367 -0.651430
v 0.357492 1.747917 -0.399797
v -0.357492 1.787367 -0.651430
v -0.357492 1.747917 -0.399797
v 0.419340 1.750586 -0.399480
v -0.419340 1.845627 -0.651432
v -0.419340 1.853250 -0.710933
v 0.357492 1.853250 -0.710933
v 0.419340 1.853250 -0.710933
v -0.419340 1.807226 -0.400044
v 0.419340 1.845627 -0.651432
v -0.357492 1.853250 -0.710933
v 0.357492 1.843921 -0.651430
v 0.357492 1.804472 -0.399797
v -0.357492 1.843921 -0.651430
v -0.357492 1.804472 -0.399797
v 0.419340 1.807140 -0.399480
vn -1.0000 -0.0000 -0.0000
vn -0.0000 0.0097 -1.0000
vn -0.0000 0.0048 -1.0000
vn 1.0000 -0.0000 -0.0000
vn -0.0000 0.0114 0.9999
vn 0.0072 0.9896 0.1436
vn 0.0109 0.9894 0.1451
vn -0.0000 0.9901 0.1405
vn -0.0000 -0.0000 -1.0000
vn 0.0217 0.9885 0.1497
vn -0.0000 0.0065 -1.0000
vn -0.0000 0.0049 -1.0000
vn -0.0000 0.0002 -1.0000
vn -0.0000 -0.9201 -0.3916
vn 0.0372 -0.9917 -0.1232
vn 0.0593 -0.9648 -0.2564
vn -0.0000 -0.9746 0.2238
vn -0.0321 -0.9969 -0.0713
vn -0.0584 -0.9954 0.0765
vn 0.0321 -0.9969 -0.0713
vn 0.0623 -0.9933 -0.0975
vn -0.0623 -0.9933 -0.0975
vn -0.0000 -0.9955 -0.0944
vn -0.0051 -0.0000 1.0000
vn -0.0034 -0.0000 1.0000
vn -0.0000 0.9889 0.1484
vn -0.0109 0.9894 0.1451
vn -0.0072 0.9896 0.1436
vn 0.0342 -0.9952 -0.0916
vn 0.0645 -0.9948 -0.0783
vn -0.0000 -1.0000 -0.0037
vn -0.0000 -1.0000 -0.0082
vn -0.0000 0.0002 1.0000
vn -0.0000 0.0058 1.0000
vn -0.0000 0.1631 0.9866
vn -0.0000 0.1716 -0.9852
vn -0.9939 0.1094 0.0164
vn 0.9939 0.1094 0.0164
vn -0.0000 0.0112 0.9999
vn -0.0645 -0.9948 -0.0783
vn -0.0372 -0.9917 -0.1232
vn -0.0342 -0.9952 -0.0916
vn -0.8809 0.0054 0.4732
vn 0.8809 0.0054 0.4732
vn -0.0000 -0.9605 0.2782
vn -0.0593 -0.9648 -0.2564
vn 0.0584 -0.9954 0.0765
vn 0.4954 -0.0027 0.8687
vn 0.4954 -0.0034 -0.8687
vn -0.4954 -0.0034 -0.8687
vn -0.4954 -0.0027 0.8687
vn -0.1909 -0.9715 -0.1402
vn 0.1909 -0.9715 -0.1402
vn 0.1244 -0.9875 -0.0969
vn -0.1244 -0.9875 -0.0969
vn -0.0000 -0.3827 -0.9239
vn -0.0000 -0.9239 -0.3827
vn -0.0000 -0.9239 0.3827
vn -0.0000 -0.3827 0.9239
vn -0.0000 0.3827 0.9239
vn -0.0000 0.9239 0.3827
vn -0.0000 0.9239 -0.3827
vn -0.0000 0.3827 -0.9239
vn -0.0000 0.9879 0.1549
vn -0.0217 0.9885 0.1497
vn -0.0000 -0.0000 1.0000
vn -0.0040 -0.0000 1.0000
vn -0.0027 -0.0000 1.0000
vn -0.0020 -0.0000 1.0000
vn -0.0026 -0.0000 1.0000
vn 0.0068 0.9890 0.1479
vn 0.0137 0.9899 0.1410
vn 0.0245 0.9888 0.1469
vn 0.0123 0.9885 0.1509
vn 0.0353 0.9876 0.1528
vn 0.0176 0.9879 0.1539
vn -0.0137 0.9899 0.1410
vn -0.0068 0.9890 0.1479
vn -0.0123 0.9885 0.1509
vn -0.0245 0.9888 0.1469
vn -0.0177 0.9879 0.1539
vn -0.0353 0.9876 0.1528
vn -0.0000 -0.9879 -0.1549
vt 0.308458 0.191426
vt 0.308410 0.174836
vt 0.321476 0.173163
vt 0.321633 0.189810
vt 0.178770 0.613199
vt 0.178770 0.596551
vt 0.192355 0.596551
vt 0.192355 0.613199
vt 0.640518 0.232915
vt 0.640460 0.218753
vt 0.652015 0.220392
vt 0.652179 0.234448
vt 0.780252 0.445590
vt 0.780252 0.431533
vt 0.793837 0.431533
vt 0.793837 0.445590
vt 0.338765 0.280353
vt 0.352530 0.281656
vt 0.352591 0.415255
vt 0.338765 0.415144
vt 0.579758 0.666546
vt 0.593343 0.666546
vt 0.593343 0.678216
vt 0.579758 0.678216
vt 0.021724 0.596551
vt 0.021724 0.443954
vt 0.178770 0.443954
vt 0.579758 0.431657
vt 0.593343 0.431533
vt 0.178770 0.703747
vt 0.192355 0.703747
vt 0.192355 0.838534
vt 0.178770 0.838534
vt 0.392849 0.734951
vt 0.379264 0.734951
vt 0.387383 0.731750
vt 0.339619 0.189810
vt 0.339776 0.173163
vt 0.352843 0.174836
vt 0.352794 0.191426
vt 0.408171 0.183284
vt 0.408884 0.199514
vt 0.009073 0.234448
vt 0.009237 0.220392
vt 0.020792 0.218753
vt 0.020734 0.232915
vt 0.253205 0.183265
vt 0.253294 0.199380
vt 0.208633 0.445356
vt 0.222218 0.445356
vt 0.214099 0.448424
vt 0.379264 0.445356
vt 0.379264 0.501509
vt 0.222218 0.502024
vt 0.699449 0.843108
vt 0.713033 0.843108
vt 0.713033 0.948313
vt 0.699449 0.948313
vt 0.222218 0.431533
vt 0.379264 0.431533
vt 0.609622 0.656199
vt 0.610207 0.642614
vt 0.762804 0.642614
vt 0.762218 0.656199
vt 0.669391 0.008139
vt 0.819711 0.008139
vt 0.819711 0.232550
vt 0.669391 0.232550
vt 0.308444 0.022234
vt 0.321511 0.020561
vt 0.409126 0.666546
vt 0.422711 0.666546
vt 0.422711 0.678216
vt 0.409126 0.678216
vt 0.308722 0.281656
vt 0.322487 0.280353
vt 0.322487 0.415144
vt 0.308662 0.415255
vt 0.376314 0.741722
vt 0.379264 0.747227
vt 0.609620 0.445590
vt 0.609620 0.431533
vt 0.623205 0.431533
vt 0.623205 0.445590
vt 0.008139 0.613199
vt 0.008139 0.596551
vt 0.021724 0.613199
vt 0.118259 0.868396
vt 0.118259 0.854812
vt 0.130515 0.854812
vt 0.130515 0.868396
vt 0.058534 0.854812
vt 0.072119 0.854812
vt 0.072119 0.868620
vt 0.058534 0.868620
vt 0.088397 0.854812
vt 0.101981 0.854812
vt 0.101981 0.868620
vt 0.088397 0.868620
vt 0.159048 0.854812
vt 0.159048 0.868397
vt 0.146792 0.868397
vt 0.146792 0.854812
vt 0.639724 0.843108
vt 0.653309 0.843108
vt 0.653309 0.976703
vt 0.639724 0.976703
vt 0.008181 0.310902
vt 0.020418 0.309940
vt 0.020413 0.415148
vt 0.008139 0.415192
vt 0.729311 0.843108
vt 0.742896 0.843108
vt 0.742896 0.948313
vt 0.729311 0.948313
vt 0.640834 0.309940
vt 0.653071 0.310902
vt 0.653114 0.415192
vt 0.640839 0.415148
vt 0.609620 0.843108
vt 0.623385 0.844412
vt 0.623446 0.978011
vt 0.609620 0.977900
vt 0.759173 0.843108
vt 0.771410 0.844071
vt 0.771448 0.948361
vt 0.759173 0.948316
vt 0.780252 0.522050
vt 0.793837 0.522050
vt 0.793837 0.626337
vt 0.780253 0.626337
vt 0.939923 0.260683
vt 0.953688 0.259379
vt 0.953688 0.394170
vt 0.939862 0.394282
vt 0.609620 0.522050
vt 0.623205 0.522050
vt 0.623206 0.626337
vt 0.609621 0.626337
vt 0.669586 0.843108
vt 0.683171 0.843108
vt 0.683171 0.976703
vt 0.669586 0.976703
vt 0.008176 0.855774
vt 0.020413 0.854812
vt 0.020413 0.960019
vt 0.008139 0.960065
vt 0.008139 0.703747
vt 0.021724 0.703747
vt 0.021724 0.838534
vt 0.008139 0.838534
vt 0.352346 0.917184
vt 0.352346 0.766864
vt 0.383741 0.763505
vt 0.383741 0.920551
vt 0.990332 0.434896
vt 0.990332 0.585216
vt 0.960522 0.588579
vt 0.960522 0.431533
vt 0.944244 0.441242
vt 0.944218 0.665721
vt 0.913988 0.666495
vt 0.913988 0.431533
vt 0.939888 0.242327
vt 0.939862 0.017848
vt 0.970117 0.008139
vt 0.970117 0.243101
vt 0.669391 0.248827
vt 0.744026 0.248827
vt 0.744026 0.399974
vt 0.669391 0.399974
vt 0.897711 0.723286
vt 0.823028 0.715649
vt 0.812514 0.484305
vt 0.897711 0.493293
vt 0.835988 0.016474
vt 0.923584 0.008139
vt 0.921124 0.062259
vt 0.835988 0.069485
vt 0.222218 0.747227
vt 0.222218 0.734951
vt 0.225167 0.741722
vt 0.793276 0.844643
vt 0.793291 0.919277
vt 0.787725 0.919567
vt 0.787725 0.843108
vt 0.036690 0.930980
vt 0.036706 0.856346
vt 0.042257 0.854812
vt 0.042257 0.931270
vt 0.967504 0.893660
vt 0.967504 0.742513
vt 0.972857 0.739563
vt 0.972857 0.896610
vt 0.214099 0.731750
vt 0.208633 0.734951
vt 0.392849 0.445356
vt 0.387383 0.448424
vt 0.859048 0.321432
vt 0.859048 0.409417
vt 0.853584 0.410101
vt 0.853584 0.319877
vt 0.875325 0.395599
vt 0.875325 0.320533
vt 0.880792 0.319877
vt 0.880792 0.396897
vt 0.902536 0.320533
vt 0.902536 0.395599
vt 0.897069 0.396897
vt 0.897069 0.319877
vt 0.831837 0.409417
vt 0.831837 0.321432
vt 0.837306 0.319877
vt 0.837306 0.410101
vt 0.583467 0.697697
vt 0.583467 0.750369
vt 0.578001 0.750066
vt 0.578001 0.694493
vt 0.986395 0.294923
vt 0.986395 0.065360
vt 0.991861 0.064644
vt 0.991861 0.297992
vt 0.387383 0.501418
vt 0.214099 0.501832
vt 0.008139 0.443954
vt 0.531707 0.867819
vt 0.531707 0.876587
vt 0.528511 0.876587
vt 0.528511 0.867819
vt 0.175325 0.888246
vt 0.175325 0.879478
vt 0.178613 0.879478
vt 0.178613 0.888246
vt 0.181732 0.879478
vt 0.181732 0.888246
vt 0.483117 0.876589
vt 0.483117 0.867820
vt 0.486313 0.867819
vt 0.486313 0.876587
vt 0.489536 0.867820
vt 0.489536 0.876588
vt 0.140943 0.893443
vt 0.140943 0.884674
vt 0.144285 0.884674
vt 0.144285 0.893443
vt 0.175325 0.860743
vt 0.175325 0.857269
vt 0.177781 0.854812
vt 0.181255 0.854812
vt 0.183711 0.857268
vt 0.183711 0.860743
vt 0.181255 0.863200
vt 0.177781 0.863200
vt 0.147321 0.884674
vt 0.147321 0.893443
vt 0.534930 0.867819
vt 0.534930 0.876587
vt 0.466839 0.870276
vt 0.466839 0.873751
vt 0.464383 0.876207
vt 0.460909 0.876207
vt 0.458453 0.873750
vt 0.458453 0.870275
vt 0.460909 0.867819
vt 0.464383 0.867819
vt 0.557628 0.867819
vt 0.557628 0.876587
vt 0.554405 0.876587
vt 0.554405 0.867819
vt 0.061876 0.893667
vt 0.061876 0.884898
vt 0.064911 0.884898
vt 0.064911 0.893666
vt 0.058534 0.893667
vt 0.058534 0.884898
vt 0.509010 0.876587
vt 0.509010 0.867819
vt 0.512233 0.867820
vt 0.512233 0.876588
vt 0.505814 0.876588
vt 0.505814 0.867820
vt 0.121547 0.893443
vt 0.121547 0.884674
vt 0.124666 0.884674
vt 0.124666 0.893443
vt 0.118259 0.893443
vt 0.118259 0.884674
vt 0.411583 0.867819
vt 0.415056 0.867819
vt 0.417512 0.870275
vt 0.417512 0.873750
vt 0.415056 0.876207
vt 0.411583 0.876207
vt 0.409126 0.873751
vt 0.409126 0.870276
vt 0.551208 0.876587
vt 0.551208 0.867819
vt 0.439719 0.867819
vt 0.442175 0.870276
vt 0.442176 0.873750
vt 0.439720 0.876207
vt 0.436246 0.876207
vt 0.433790 0.873750
vt 0.433790 0.870276
vt 0.436246 0.867819
vt 0.336069 0.763505
vt 0.336069 0.920551
vt 0.280167 0.920551
vt 0.280167 0.763505
vt 0.409126 0.431658
vt 0.422711 0.431657
vt 0.409127 0.851541
vt 0.409127 0.694495
vt 0.561723 0.694493
vt 0.561723 0.851540
vt 0.986395 0.011342
vt 0.991861 0.008139
vt 0.910671 0.292255
vt 0.835988 0.299892
vt 0.583467 0.981278
vt 0.578001 0.984347
vt 0.810115 0.431533
vt 0.897711 0.439867
vt 0.762823 0.826831
vt 0.762217 0.813246
vt 0.774639 0.813246
vt 0.775244 0.826831
vt 0.192355 0.443954
vt 0.178770 0.431533
vt 0.192355 0.431533
vt 0.008139 0.431533
vt 0.021724 0.431533
vt 0.775225 0.642614
vt 0.774640 0.656199
vt 0.263889 0.916107
vt 0.208633 0.924779
vt 0.208633 0.772177
vt 0.263889 0.763505
vt 0.610226 0.826831
vt 0.609620 0.813246
vt 0.339742 0.020561
vt 0.352808 0.022234
vt 0.408136 0.030682
vt 0.253240 0.030663
vt 0.815560 0.410101
vt 0.760303 0.401429
vt 0.760303 0.248827
vt 0.815560 0.257499
vt 0.308447 0.009812
vt 0.321514 0.008139
vt 0.879238 0.910195
vt 0.879237 0.923779
vt 0.866062 0.923779
vt 0.866018 0.910195
vt 0.810240 0.923779
vt 0.810116 0.910195
vt 0.879237 0.739563
vt 0.879237 0.753148
vt 0.866018 0.753148
vt 0.866062 0.739563
vt 0.810116 0.753148
vt 0.810115 0.739563
vt 0.253243 0.018241
vt 0.352805 0.009812
vt 0.408133 0.018260
vt 0.339739 0.008139
vt 0.951226 0.739563
vt 0.951226 0.896610
vt 0.895515 0.896610
vt 0.895515 0.739563
s 1
usemtl Cube
f 72/1/1 12/2/1 4/3/1 50/4/1
f 60/5/2 74/6/3 8/7/3 51/8/2
f 70/9/4 16/10/4 6/11/4 52/12/4
f 64/13/5 22/14/5 2/15/5 49/16/5
f 7/17/4 68/18/4 35/19/4 36/20/4
f 47/21/6 11/22/7 2/23/8 22/24/8
f 74/6/3 73/25/3 127/26/9 123/27/9
f 75/28/10 112/29/10 11/22/7 47/21/6
f 17/30/11 7/31/12 36/32/13 43/33/13
f 67/34/14 29/35/15 13/36/16
f 51/37/4 8/38/4 15/39/4 69/40/4
f 69/40/4 15/39/4 111/41/4 114/42/4
f 49/43/1 2/44/1 11/45/1 71/46/1
f 71/46/1 11/45/1 112/47/1 116/48/1
f 65/49/17 28/50/18 9/51/19
f 28/50/18 27/52/20 120/53/21 118/54/22
f 29/55/13 67/56/13 40/57/13 46/58/13
f 18/59/23 17/60/23 27/52/20 28/50/18
f 76/61/24 111/62/24 132/63/24 129/64/25
f 24/65/26 23/66/26 25/67/26 26/68/26
f 4/3/1 12/2/1 121/69/1 122/70/1
f 16/71/27 48/72/28 21/73/8 6/74/8
f 48/72/28 47/21/6 22/24/8 21/73/8
f 65/75/1 3/76/1 34/77/1 39/78/1
f 20/79/29 29/35/15 62/80/30
f 52/81/5 6/82/5 21/83/5 63/84/5
f 63/84/5 21/83/5 22/14/5 64/13/5
f 50/85/2 4/86/3 73/25/3 59/87/2
f 59/87/2 73/25/3 74/6/3 60/5/2
f 46/88/31 40/89/31 38/90/31 37/91/31
f 43/92/32 36/93/32 35/94/32 45/95/32
f 34/96/32 33/97/32 41/98/32 39/99/32
f 31/100/31 42/101/31 44/102/31 32/103/31
f 28/104/33 65/105/33 39/106/33 41/107/33
f 1/108/1 66/109/1 31/110/1 32/111/1
f 66/112/13 30/113/13 42/114/13 31/115/13
f 67/116/4 5/117/4 38/118/4 40/119/4
f 18/120/4 28/121/4 41/122/4 33/123/4
f 30/124/4 61/125/4 44/126/4 42/127/4
f 61/128/34 1/129/34 32/130/33 44/131/33
f 27/132/1 17/133/1 43/134/1 45/135/1
f 5/136/34 62/137/34 37/138/33 38/139/33
f 68/140/33 27/141/33 45/142/33 35/143/33
f 62/144/1 29/145/1 46/146/1 37/147/1
f 3/148/12 18/149/11 33/150/13 34/151/13
f 23/152/35 24/153/35 76/154/35 75/155/35
f 26/156/36 25/157/36 47/158/36 48/159/36
f 24/160/37 26/161/37 48/162/37 76/163/37
f 25/164/38 23/165/38 75/166/38 47/167/38
f 18/149/11 59/87/2 60/5/2 17/30/11
f 3/148/12 50/85/2 59/87/2 18/149/11
f 20/168/39 57/169/39 58/170/39 19/171/39
f 5/136/34 52/81/5 63/84/5 62/137/34
f 10/172/1 55/173/1 117/174/1 119/175/1
f 1/108/1 49/43/1 71/46/1 66/109/1
f 14/176/4 53/177/4 113/178/4 115/179/4
f 7/17/4 51/37/4 69/40/4 68/18/4
f 61/128/34 64/13/5 49/16/5 1/129/34
f 67/116/4 70/9/4 52/12/4 5/117/4
f 17/30/11 60/5/2 51/8/2 7/31/12
f 65/75/1 72/1/1 50/4/1 3/76/1
f 61/180/40 30/181/41 19/182/42
f 57/183/43 20/184/43 62/185/43 63/186/43
f 19/187/44 58/188/44 64/189/44 61/190/44
f 58/191/45 57/192/45 63/193/45 64/194/45
f 20/79/29 19/182/42 30/181/41 29/35/15
f 10/195/46 30/181/41 66/196/14
f 27/52/20 68/197/17 14/198/47
f 53/199/48 14/200/48 68/201/48 69/202/48
f 13/203/49 54/204/49 70/205/49 67/206/49
f 55/207/50 10/208/50 66/209/50 71/210/50
f 9/211/51 56/212/51 72/213/51 65/214/51
f 56/215/52 117/216/52 116/217/52 72/218/52
f 54/219/53 113/220/53 114/221/53 70/222/53
f 14/198/47 115/223/54 120/53/21 27/52/20
f 10/195/46 119/224/55 118/54/22 30/181/41
f 73/25/3 4/86/3 122/225/9 127/26/9
f 94/226/56 78/227/56 80/228/56 95/229/56
f 95/230/57 80/231/57 82/232/57 97/233/57
f 97/233/58 82/232/58 84/234/58 99/235/58
f 99/236/59 84/237/59 86/238/59 101/239/59
f 101/239/60 86/238/60 88/240/60 103/241/60
f 103/242/61 88/243/61 90/244/61 105/245/61
f 80/246/4 78/247/4 92/248/4 90/249/4 88/250/4 86/251/4 84/252/4 82/253/4
f 105/245/62 90/244/62 92/254/62 107/255/62
f 107/256/63 92/257/63 78/227/63 94/226/63
f 77/258/1 79/259/1 81/260/1 83/261/1 85/262/1 87/263/1 89/264/1 91/265/1
f 91/266/63 108/267/63 93/268/63 77/269/63
f 89/270/62 106/271/62 108/272/62 91/273/62
f 87/274/61 104/275/61 106/271/61 89/270/61
f 85/276/60 102/277/60 104/278/60 87/279/60
f 83/280/59 100/281/59 102/277/59 85/276/59
f 81/282/58 98/283/58 100/284/58 83/285/58
f 79/286/57 96/287/57 98/283/57 81/282/57
f 108/288/4 106/289/4 104/290/4 102/291/4 100/292/4 98/293/4 96/294/4 93/295/4
f 77/269/56 93/268/56 96/296/56 79/297/56
f 107/298/1 94/299/1 95/300/1 97/301/1 99/302/1 101/303/1 103/304/1 105/305/1
f 110/306/64 109/307/64 75/308/64 76/309/64
f 111/310/65 76/311/65 48/72/28 16/71/27
f 109/312/66 110/313/66 128/314/66 130/315/66
f 114/42/4 111/41/4 16/10/4 70/9/4
f 114/221/53 113/220/53 53/316/53 69/317/53
f 115/179/4 113/178/4 54/318/4 13/319/4
f 116/217/52 117/216/52 55/320/52 71/321/52
f 116/48/1 112/47/1 12/2/1 72/1/1
f 118/54/22 119/224/55 9/51/19 28/50/18
f 119/175/1 117/174/1 56/322/1 9/323/1
f 120/53/21 115/223/54 13/36/16 29/35/15
f 118/54/22 120/53/21 29/35/15 30/181/41
f 125/324/67 131/325/68 143/326/69 137/327/67
f 124/328/9 123/27/9 135/329/9 136/330/9
f 127/26/9 122/225/9 134/331/9 139/332/9
f 129/64/25 132/63/24 144/333/24 141/334/70
f 129/64/25 141/334/70 143/326/69 131/325/68
f 110/335/1 76/336/1 129/337/1 128/338/1
f 112/339/67 75/340/67 131/325/68 125/324/67
f 15/39/4 8/38/4 124/341/4 126/342/4
f 111/41/4 15/39/4 126/342/4 132/343/4
f 12/2/1 112/47/1 125/344/1 121/69/1
f 75/345/4 109/346/4 130/347/4 131/348/4
f 8/7/3 74/6/3 123/27/9 124/328/9
f 122/70/1 121/69/1 133/349/1 134/350/1
f 139/351/71 134/352/72 133/353/73 142/354/74
f 137/355/75 143/356/76 142/354/74 133/353/73
f 136/357/77 135/358/78 140/359/79 138/360/80
f 135/358/78 139/351/71 142/354/74 140/359/79
f 138/360/80 140/359/79 141/361/81 144/362/82
f 142/354/74 143/356/76 141/361/81 140/359/79
f 123/27/9 127/26/9 139/332/9 135/329/9
f 121/69/1 125/344/1 137/363/1 133/349/1
f 132/343/4 126/342/4 138/364/4 144/365/4
f 126/342/4 124/341/4 136/366/4 138/364/4
f 129/367/83 131/368/83 130/369/83 128/370/83
o Cylinder
v 0.296076 0.815398 0.644576
v 0.296076 0.782670 0.825183
v 0.306677 0.811050 0.643958
v 0.301016 0.780638 0.824937
v 0.311069 0.800554 0.642465
v 0.303063 0.775734 0.824341
v 0.306677 0.790059 0.640971
v 0.301016 0.770830 0.823745
v 0.296076 0.785711 0.640353
v 0.296076 0.768799 0.823499
v 0.285474 0.790059 0.640971
v 0.291136 0.770830 0.823745
v 0.281083 0.800554 0.642465
v 0.289089 0.775734 0.824341
v 0.285474 0.811050 0.643958
v 0.291136 0.780638 0.824937
v 0.296076 0.805206 0.705425
v 0.296076 0.791478 0.787019
v 0.303509 0.788422 0.786648
v 0.305575 0.801311 0.704871
v 0.306587 0.781043 0.785752
v 0.309510 0.791906 0.703533
v 0.303509 0.773665 0.784856
v 0.305575 0.782502 0.702194
v 0.296076 0.770608 0.784485
v 0.296076 0.778606 0.701640
v 0.288643 0.773665 0.784856
v 0.286577 0.782502 0.702194
v 0.285565 0.781043 0.785752
v 0.282642 0.791906 0.703533
v 0.288643 0.788422 0.786648
v 0.286577 0.801311 0.704871
v 0.296076 0.790745 0.812356
v 0.305430 0.786899 0.811889
v 0.309305 0.777612 0.810761
v 0.305430 0.768326 0.809633
v 0.296076 0.764480 0.809166
v 0.286722 0.768326 0.809633
v 0.282847 0.777612 0.810761
v 0.286722 0.786899 0.811889
v 0.296076 0.795993 0.821711
v 0.309806 0.790348 0.821025
v 0.315493 0.776718 0.819370
v 0.309806 0.763088 0.817715
v 0.296076 0.757443 0.817029
v 0.282346 0.763088 0.817715
v 0.276659 0.776718 0.819370
v 0.282346 0.790348 0.821025
v 0.296076 0.793506 0.824509
v 0.308562 0.788372 0.823885
v 0.313734 0.775976 0.822380
v 0.308562 0.763581 0.820875
v 0.296076 0.758447 0.820251
v 0.283590 0.763581 0.820875
v 0.278418 0.775976 0.822380
v 0.283590 0.788372 0.823885
v 0.303339 0.785388 0.807437
v 0.306348 0.778178 0.806562
v 0.303339 0.770967 0.805686
v 0.296076 0.767981 0.805323
v 0.288813 0.770967 0.805686
v 0.285804 0.778178 0.806562
v 0.288813 0.785388 0.807437
v 0.296076 0.788374 0.807800
v 0.296076 0.795036 0.777925
v 0.305376 0.791212 0.777461
v 0.309228 0.781980 0.776340
v 0.305376 0.772747 0.775219
v 0.296076 0.768923 0.774755
v 0.286776 0.772747 0.775219
v 0.282924 0.781980 0.776340
v 0.286776 0.791212 0.777461
vn -0.0000 0.6018 0.7986
vn -0.0000 -0.0057 1.0000
vn 0.0813 -0.0391 0.9959
vn 0.5262 0.3933 0.7540
vn 0.1149 -0.1198 0.9861
vn 0.7577 -0.1322 0.6391
vn 0.0813 -0.2005 0.9763
vn 0.5332 -0.6678 0.5194
vn -0.0000 -0.2339 0.9723
vn -0.0000 -0.8820 0.4712
vn -0.0813 -0.2005 0.9763
vn -0.5332 -0.6678 0.5194
vn -0.1149 -0.1198 0.9861
vn -0.7577 -0.1322 0.6391
vn -0.0813 -0.0391 0.9959
vn -0.5262 0.3933 0.7540
vn -0.0000 0.1409 -0.9900
vn -0.6922 0.7106 0.1261
vn -0.7104 0.6948 0.1116
vn -0.0000 0.9883 0.1525
vn -0.0000 0.9863 0.1652
vn -0.7157 0.6783 0.1665
vn -0.6894 0.6956 0.2021
vn -0.0000 0.9714 0.2375
vn -0.0000 0.9787 0.2052
vn -0.9992 0.0266 0.0293
vn -0.9999 -0.0078 0.0137
vn -0.9967 -0.0310 0.0753
vn -0.9934 0.0119 0.1141
vn -0.7227 -0.6874 -0.0718
vn -0.7047 -0.7046 -0.0832
vn -0.6945 -0.7194 -0.0131
vn -0.7159 -0.6978 0.0224
vn -0.0000 -0.9933 -0.1152
vn -0.0000 -0.9924 -0.1233
vn -0.0000 -0.9988 -0.0489
vn -0.0000 -0.9999 -0.0167
vn 0.7227 -0.6874 -0.0718
vn 0.7047 -0.7046 -0.0832
vn 0.6945 -0.7194 -0.0131
vn 0.7159 -0.6978 0.0224
vn 0.9992 0.0266 0.0293
vn 0.9999 -0.0078 0.0137
vn 0.9967 -0.0310 0.0753
vn 0.9934 0.0119 0.1141
vn 0.6922 0.7106 0.1261
vn 0.7104 0.6948 0.1116
vn 0.7157 0.6783 0.1665
vn 0.6894 0.6956 0.2021
vn -0.7119 0.7011 -0.0415
vn -0.5787 0.6390 -0.5068
vn -0.0000 0.8780 -0.4786
vn -0.0000 0.8871 -0.4616
vn -0.9905 -0.0038 -0.1377
vn -0.8160 0.0642 -0.5745
vn -0.6894 -0.6864 -0.2315
vn -0.5753 -0.5073 -0.6417
vn -0.0000 -0.9630 -0.2696
vn -0.0000 -0.7429 -0.6694
vn 0.6894 -0.6864 -0.2315
vn 0.5753 -0.5073 -0.6417
vn 0.9905 -0.0038 -0.1377
vn 0.8160 0.0642 -0.5745
vn 0.7119 0.7011 -0.0415
vn 0.5787 0.6390 -0.5068
vn -0.5701 0.6403 -0.5147
vn -0.0000 0.8721 -0.4893
vn -0.8134 0.0736 -0.5770
vn -0.5803 -0.5032 -0.6403
vn -0.0000 -0.7452 -0.6669
vn 0.5803 -0.5032 -0.6403
vn 0.8134 0.0736 -0.5770
vn 0.5701 0.6403 -0.5147
vn -0.5767 0.5331 0.6191
vn -0.0000 0.7473 0.6644
vn -0.8661 -0.0284 0.4991
vn -0.6546 -0.6641 0.3612
vn -0.0000 -0.9547 0.2976
vn 0.6546 -0.6641 0.3612
vn 0.8661 -0.0284 0.4991
vn 0.5767 0.5331 0.6191
vn -0.0000 0.9890 0.1477
vt 1.000000 0.998750
vt 1.000000 1.000000
vt 0.875000 1.000000
vt 0.875000 0.998750
vt 0.750000 1.000000
vt 0.750000 0.998750
vt 0.625000 1.000000
vt 0.625000 0.998750
vt 0.500000 1.000000
vt 0.500000 0.998751
vt 0.375000 1.000000
vt 0.375000 0.998751
vt 0.250000 1.000000
vt 0.250000 0.998751
vt 0.419706 0.419706
vt 0.250000 0.490000
vt 0.080294 0.419706
vt 0.010000 0.250000
vt 0.080294 0.080294
vt 0.250000 0.010000
vt 0.419706 0.080294
vt 0.490000 0.250000
vt 0.125000 1.000000
vt 0.125000 0.998751
vt 0.000000 1.000000
vt 0.000000 0.998750
vt 0.750000 0.490000
vt 0.919706 0.419706
vt 0.990000 0.250000
vt 0.919706 0.080294
vt 0.750000 0.010000
vt 0.580294 0.080294
vt 0.510000 0.250000
vt 0.580294 0.419706
vt 0.125000 0.500000
vt 0.125000 0.780987
vt 0.000000 0.780987
vt 0.000000 0.500000
vt 0.125000 0.921307
vt 0.125000 0.947654
vt 0.000000 0.947654
vt 0.000000 0.921307
vt 0.250000 0.500000
vt 0.250000 0.780987
vt 0.250000 0.921307
vt 0.250000 0.947654
vt 0.375000 0.500000
vt 0.375000 0.780987
vt 0.375000 0.921307
vt 0.375000 0.947654
vt 0.500000 0.500000
vt 0.500000 0.780987
vt 0.500000 0.921307
vt 0.500000 0.947654
vt 0.625000 0.500000
vt 0.625000 0.780987
vt 0.625000 0.921307
vt 0.625000 0.947654
vt 0.750000 0.500000
vt 0.750000 0.780987
vt 0.750000 0.921307
vt 0.750000 0.947654
vt 0.875000 0.500000
vt 0.875000 0.780987
vt 0.875000 0.921307
vt 0.875000 0.947654
vt 1.000000 0.500000
vt 1.000000 0.780987
vt 1.000000 0.921307
vt 1.000000 0.947654
vt 0.125000 0.966101
vt 0.125000 0.973827
vt 0.000000 0.973827
vt 0.000000 0.966101
vt 0.250000 0.966101
vt 0.250000 0.973827
vt 0.375000 0.966101
vt 0.375000 0.973827
vt 0.500000 0.966101
vt 0.500000 0.973827
vt 0.625000 0.966101
vt 0.625000 0.973827
vt 0.750000 0.966101
vt 0.750000 0.973827
vt 0.875000 0.966101
vt 0.875000 0.973827
vt 1.000000 0.966101
vt 1.000000 0.973827
vt 0.125000 0.994924
vt 0.000000 0.994924
vt 0.250000 0.994924
vt 0.375000 0.994924
vt 0.500000 0.994924
vt 0.625000 0.994924
vt 0.750000 0.994924
vt 0.875000 0.994924
vt 1.000000 0.994924
s 1
usemtl Cylinder
f 193/371/84 146/372/85 148/373/86 194/374/87
f 194/374/87 148/373/86 150/375/88 195/376/89
f 195/376/89 150/375/88 152/377/90 196/378/91
f 196/378/91 152/377/90 154/379/92 197/380/93
f 197/380/93 154/379/92 156/381/94 198/382/95
f 198/382/95 156/381/94 158/383/96 199/384/97
f 148/385/86 146/386/85 160/387/98 158/388/96 156/389/94 154/390/92 152/391/90 150/392/88
f 199/384/97 158/383/96 160/393/98 200/394/99
f 200/394/99 160/393/98 146/395/85 193/396/84
f 145/397/100 147/398/100 149/399/100 151/400/100 153/401/100 155/402/100 157/403/100 159/404/100
f 159/405/101 176/406/102 161/407/103 145/408/104
f 216/409/105 175/410/106 162/411/107 209/412/108
f 157/413/109 174/414/110 176/406/102 159/405/101
f 215/415/111 173/416/112 175/410/106 216/409/105
f 155/417/113 172/418/114 174/414/110 157/413/109
f 214/419/115 171/420/116 173/416/112 215/415/111
f 153/421/117 170/422/118 172/418/114 155/417/113
f 213/423/119 169/424/120 171/420/116 214/419/115
f 151/425/121 168/426/122 170/422/118 153/421/117
f 212/427/123 167/428/124 169/424/120 213/423/119
f 149/429/125 166/430/126 168/426/122 151/425/121
f 211/431/127 165/432/128 167/428/124 212/427/123
f 147/433/129 164/434/130 166/430/126 149/429/125
f 210/435/131 163/436/132 165/432/128 211/431/127
f 145/437/104 161/438/103 164/434/130 147/433/129
f 209/439/108 162/440/107 163/436/132 210/435/131
f 207/441/133 184/442/134 177/443/135 208/444/136
f 206/445/137 183/446/138 184/442/134 207/441/133
f 205/447/139 182/448/140 183/446/138 206/445/137
f 204/449/141 181/450/142 182/448/140 205/447/139
f 203/451/143 180/452/144 181/450/142 204/449/141
f 202/453/145 179/454/146 180/452/144 203/451/143
f 201/455/147 178/456/148 179/454/146 202/453/145
f 208/457/136 177/458/135 178/456/148 201/455/147
f 184/442/134 192/459/149 185/460/150 177/443/135
f 183/446/138 191/461/151 192/459/149 184/442/134
f 182/448/140 190/462/152 191/461/151 183/446/138
f 181/450/142 189/463/153 190/462/152 182/448/140
f 180/452/144 188/464/154 189/463/153 181/450/142
f 179/454/146 187/465/155 188/464/154 180/452/144
f 178/456/148 186/466/156 187/465/155 179/454/146
f 177/458/135 185/467/150 186/466/156 178/456/148
f 192/459/157 200/394/99 193/396/84 185/460/158
f 191/461/159 199/384/97 200/394/99 192/459/157
f 190/462/160 198/382/95 199/384/97 191/461/159
f 189/463/161 197/380/93 198/382/95 190/462/160
f 188/464/162 196/378/91 197/380/93 189/463/161
f 187/465/163 195/376/89 196/378/91 188/464/162
f 186/466/164 194/374/87 195/376/89 187/465/163
f 185/467/158 193/371/84 194/374/87 186/466/164
f 162/440/107 208/457/165 201/455/147 163/436/132
f 163/436/132 201/455/147 202/453/145 165/432/128
f 165/432/128 202/453/145 203/451/143 167/428/124
f 167/428/124 203/451/143 204/449/141 169/424/120
f 169/424/120 204/449/141 205/447/139 171/420/116
f 171/420/116 205/447/139 206/445/137 173/416/112
f 173/416/112 206/445/137 207/441/133 175/410/106
f 175/410/106 207/441/133 208/444/165 162/411/107
f 161/438/103 209/439/108 210/435/131 164/434/130
f 164/434/130 210/435/131 211/431/127 166/430/126
f 166/430/126 211/431/127 212/427/123 168/426/122
f 168/426/122 212/427/123 213/423/119 170/422/118
f 170/422/118 213/423/119 214/419/115 172/418/114
f 172/418/114 214/419/115 215/415/111 174/414/110
f 174/414/110 215/415/111 216/409/105 176/406/102
f 176/406/102 216/409/105 209/412/108 161/407/103
