# Blender 5.0.1
# www.blender.org
mtllib flipper_gate.mtl
o gate
v 0.017078 0.046392 0.015738
v 0.017078 -0.003592 0.015738
v 0.017078 0.046392 0.171913
v 0.017078 -0.003592 0.171913
v -0.017078 0.046392 0.015738
v -0.017078 -0.003592 0.015738
v -0.017078 0.046392 0.171913
v -0.017078 -0.003592 0.171913
v 0.005693 -0.003592 0.000083
v -0.005693 -0.003592 0.000083
v 0.005693 0.046392 0.187568
v -0.005693 0.046392 0.187568
v -0.005693 -0.003592 0.187568
v 0.005693 -0.003592 0.187568
v -0.005693 0.046392 0.000083
v 0.005693 0.046392 0.000083
v 0.017078 0.029731 0.015738
v 0.017078 0.013070 0.015738
v -0.017078 0.013070 0.171913
v -0.017078 0.029731 0.171913
v 0.017078 0.029731 0.171913
v 0.017078 0.013070 0.171913
v -0.017078 0.029731 0.015738
v -0.017078 0.013070 0.015738
v -0.005693 0.029731 0.000083
v -0.005693 0.013070 0.000083
v 0.005693 0.029731 0.000083
v 0.005693 0.013070 0.000083
v 0.005693 0.029731 0.187568
v 0.005693 0.013070 0.187568
v -0.005693 0.029731 0.187568
v -0.005693 0.013070 0.187568
vn -0.0000 1.0000 -0.0000
vn -0.8087 -0.0000 0.5882
vn -1.0000 -0.0000 -0.0000
vn -0.0000 -1.0000 -0.0000
vn 1.0000 -0.0000 -0.0000
vn 0.8087 -0.0000 -0.5882
vn -0.8087 -0.0000 -0.5882
vn -0.0000 -0.0000 -1.0000
vn 0.8087 -0.0000 0.5882
vn -0.0000 -0.0000 1.0000
vt 0.115346 0.348668
vt 0.012705 0.334648
vt 0.012705 0.026725
vt 0.115346 0.012705
vt 0.782013 0.448679
vt 0.782013 0.346038
vt 0.884654 0.346038
vt 0.884654 0.448679
vt 0.115346 0.682001
vt 0.012705 0.682001
vt 0.012705 0.374078
vt 0.115346 0.374078
vt 0.448679 0.348668
vt 0.346038 0.334648
vt 0.346038 0.026725
vt 0.448679 0.012705
vt 0.782013 0.320628
vt 0.679372 0.320628
vt 0.679372 0.012705
vt 0.782013 0.012705
vt 0.679372 0.782013
vt 0.679372 0.679372
vt 0.782013 0.679372
vt 0.782013 0.782013
vt 0.448679 0.476719
vt 0.448679 0.374078
vt 0.551320 0.374078
vt 0.551320 0.476719
vt 0.653961 0.374078
vt 0.653961 0.476719
vt 0.653961 0.334648
vt 0.551320 0.348668
vt 0.551320 0.012705
vt 0.653961 0.026725
vt 0.807423 0.782013
vt 0.807423 0.679372
vt 0.910064 0.679372
vt 0.910064 0.782013
vt 0.679372 0.448679
vt 0.679372 0.346038
vt 0.320628 0.334648
vt 0.217987 0.348668
vt 0.217987 0.012705
vt 0.320628 0.026725
vt 0.679372 0.653962
vt 0.679372 0.551320
vt 0.782013 0.551320
vt 0.782013 0.653962
vt 0.807423 0.987295
vt 0.807423 0.884654
vt 0.910064 0.884654
vt 0.910064 0.987295
vt 0.551320 0.682001
vt 0.551320 0.579360
vt 0.653961 0.579360
vt 0.653961 0.682001
vt 0.448679 0.682001
vt 0.448679 0.579360
vt 0.679372 0.987295
vt 0.679372 0.884654
vt 0.782013 0.884654
vt 0.782013 0.987295
vt 0.987295 0.320628
vt 0.884654 0.320628
vt 0.884654 0.012705
vt 0.987295 0.012705
vt 0.320628 0.682001
vt 0.217987 0.682001
vt 0.217987 0.374078
vt 0.320628 0.374078
vt 0.884654 0.551320
vt 0.884654 0.653962
s 0
usemtl Material.001
f 15/1/1 5/2/1 7/3/1 12/4/1
f 31/5/2 12/6/2 7/7/2 20/8/2
f 20/9/3 7/10/3 5/11/3 23/12/3
f 9/13/4 2/14/4 4/15/4 14/16/4
f 17/17/5 1/18/5 3/19/5 21/20/5
f 27/21/6 16/22/6 1/23/6 17/24/6
f 23/25/7 5/26/7 15/27/7 25/28/7
f 25/28/8 15/27/8 16/29/8 27/30/8
f 6/31/4 10/32/4 13/33/4 8/34/4
f 10/32/4 9/13/4 14/16/4 13/33/4
f 21/35/9 3/36/9 11/37/9 29/38/9
f 29/39/10 11/40/10 12/6/10 31/5/10
f 1/41/1 16/42/1 11/43/1 3/44/1
f 16/42/1 15/1/1 12/4/1 11/43/1
f 14/45/10 30/46/10 32/47/10 13/48/10
f 30/46/10 29/39/10 31/5/10 32/47/10
f 4/49/9 22/50/9 30/51/9 14/52/9
f 22/50/9 21/35/9 29/38/9 30/51/9
f 10/53/8 26/54/8 28/55/8 9/56/8
f 26/54/8 25/28/8 27/30/8 28/55/8
f 6/57/7 24/58/7 26/54/7 10/53/7
f 24/58/7 23/25/7 25/28/7 26/54/7
f 9/59/6 28/60/6 18/61/6 2/62/6
f 28/60/6 27/21/6 17/24/6 18/61/6
f 2/63/5 18/64/5 22/65/5 4/66/5
f 18/61/10 17/24/10 23/25/10 24/58/10
f 8/67/3 19/68/3 24/69/3 6/70/3
f 19/71/8 20/8/8 21/35/8 22/50/8
f 13/48/2 32/47/2 19/71/2 8/72/2
f 32/47/2 31/5/2 20/8/2 19/71/2
f 17/24/4 21/35/4 20/9/4 23/25/4
f 18/61/1 24/58/1 19/68/1 22/50/1
