# Blender 5.0.1
# www.blender.org
mtllib flipper_wall.mtl
o Cube
v 0.017078 0.046392 -0.171913
v 0.017078 -0.003592 -0.171913
v 0.017078 0.046392 0.171913
v 0.017078 -0.003592 0.171913
v -0.017078 0.046392 -0.171913
v -0.017078 -0.003592 -0.171913
v -0.017078 0.046392 0.171913
v -0.017078 -0.003592 0.171913
v 0.005693 -0.003592 -0.187568
v -0.005693 -0.003592 -0.187568
v 0.005693 0.046392 0.187568
v -0.005693 0.046392 0.187568
v -0.005693 -0.003592 0.187568
v 0.005693 -0.003592 0.187568
v -0.005693 0.046392 -0.187568
v 0.005693 0.046392 -0.187568
vn -0.0000 1.0000 -0.0000
vn -0.8087 -0.0000 0.5882
vn -1.0000 -0.0000 -0.0000
vn -0.0000 -1.0000 -0.0000
vn 1.0000 -0.0000 -0.0000
vn 0.8087 -0.0000 -0.5882
vn -0.8087 -0.0000 -0.5882
vn -0.0000 -0.0000 -1.0000
vn 0.8087 -0.0000 0.5882
vn -0.0000 -0.0000 1.0000
vt 0.115346 0.348668
vt 0.012705 0.334648
vt 0.012705 0.026725
vt 0.115346 0.012705
vt 0.782013 0.653962
vt 0.782013 0.346038
vt 0.884654 0.346038
vt 0.884654 0.653962
vt 0.320628 0.682001
vt 0.012705 0.682001
vt 0.012705 0.374078
vt 0.320628 0.374078
vt 0.448679 0.348668
vt 0.346038 0.334648
vt 0.346038 0.026725
vt 0.448679 0.012705
vt 0.987295 0.320628
vt 0.679372 0.320628
vt 0.679372 0.012705
vt 0.987295 0.012705
vt 0.679372 0.987295
vt 0.679372 0.679372
vt 0.782013 0.679372
vt 0.782013 0.987295
vt 0.448679 0.682001
vt 0.448679 0.374078
vt 0.551320 0.374078
vt 0.551320 0.682001
vt 0.653961 0.374078
vt 0.653961 0.682001
vt 0.653961 0.334648
vt 0.551320 0.348668
vt 0.551320 0.012705
vt 0.653961 0.026725
vt 0.807423 0.987295
vt 0.807423 0.679372
vt 0.910064 0.679372
vt 0.910064 0.987295
vt 0.679372 0.653962
vt 0.679372 0.346038
vt 0.320628 0.334648
vt 0.217987 0.348668
vt 0.217987 0.012705
vt 0.320628 0.026725
s 0
usemtl Material
f 15/1/1 5/2/1 7/3/1 12/4/1
f 13/5/2 12/6/2 7/7/2 8/8/2
f 8/9/3 7/10/3 5/11/3 6/12/3
f 9/13/4 2/14/4 4/15/4 14/16/4
f 2/17/5 1/18/5 3/19/5 4/20/5
f 9/21/6 16/22/6 1/23/6 2/24/6
f 6/25/7 5/26/7 15/27/7 10/28/7
f 10/28/8 15/27/8 16/29/8 9/30/8
f 6/31/4 10/32/4 13/33/4 8/34/4
f 10/32/4 9/13/4 14/16/4 13/33/4
f 4/35/9 3/36/9 11/37/9 14/38/9
f 14/39/10 11/40/10 12/6/10 13/5/10
f 1/41/1 16/42/1 11/43/1 3/44/1
f 16/42/1 15/1/1 12/4/1 11/43/1
