# Blender 5.0.1
# www.blender.org
mtllib paddle.mtl
o Cylinder
v 0.000000 -0.000030 -0.098245
v 0.000000 0.029651 -0.096162
v 0.004732 -0.000030 -0.096708
v 0.004345 0.029651 -0.094751
v 0.007656 -0.000030 -0.092683
v 0.007030 0.029651 -0.091055
v 0.014906 -0.000030 0.000333
v 0.013687 0.029651 -0.000716
v 0.009212 -0.000030 0.008169
v 0.008459 0.029651 0.006480
v 0.000000 -0.000030 0.011162
v 0.000000 0.029651 0.009228
v -0.009212 -0.000030 0.008169
v -0.008459 0.029651 0.006480
v -0.014906 -0.000030 0.000333
v -0.013687 0.029651 -0.000716
v -0.007656 -0.000030 -0.092683
v -0.007030 0.029651 -0.091055
v -0.004732 -0.000030 -0.096708
v -0.004345 0.029651 -0.094751
v -0.005255 0.024050 -0.098555
v -0.005255 0.005571 -0.098555
v -0.008503 0.005571 -0.094310
v -0.008503 0.024050 -0.094310
v -0.016554 0.005571 0.002212
v -0.016554 0.024050 0.002212
v -0.010231 0.005571 0.010476
v -0.010231 0.024050 0.010476
v 0.000000 0.005571 0.013633
v 0.000000 0.024050 0.013633
v 0.010231 0.005571 0.010476
v 0.010231 0.024050 0.010476
v 0.016554 0.005571 0.002212
v 0.016554 0.024050 0.002212
v 0.008503 0.005571 -0.094310
v 0.008503 0.024050 -0.094310
v 0.005255 0.005571 -0.098555
v 0.005255 0.024050 -0.098555
v -0.000000 0.005571 -0.100177
v 0.000000 0.024050 -0.100177
v -0.004788 0.004070 -0.097108
v -0.000000 0.004070 -0.098664
v -0.004788 0.025552 -0.096556
v -0.000000 0.025552 -0.098095
v 0.004788 0.004070 -0.097108
v 0.004788 0.025552 -0.096556
v 0.007747 0.004070 -0.093036
v 0.007747 0.025552 -0.092526
v 0.015082 0.004070 0.000740
v 0.015082 0.025552 0.000258
v 0.009321 0.004070 0.008669
v 0.009321 0.025552 0.008103
v 0.000000 0.004070 0.011698
v 0.000000 0.025552 0.011100
v -0.009321 0.004070 0.008669
v -0.009321 0.025552 0.008103
v -0.015082 0.004070 0.000740
v -0.015082 0.025552 0.000258
v -0.007747 0.004070 -0.093036
v -0.007747 0.025552 -0.092526
vn -0.8691 0.3112 -0.3846
vn -0.9647 0.2530 -0.0737
vn -0.9176 0.2927 -0.2691
vn -0.5108 0.3923 -0.7649
vn -0.5790 0.3809 -0.7208
vn -0.7473 0.3788 0.5460
vn -0.5247 0.4073 0.7475
vn -0.5485 0.4062 0.7308
vn -0.0000 0.4182 0.9084
vn 0.5247 0.4073 0.7475
vn 0.5485 0.4062 0.7308
vn 0.7473 0.3788 0.5460
vn 0.9647 0.2530 -0.0737
vn 0.8691 0.3112 -0.3846
vn 0.9176 0.2927 -0.2691
vn 0.5108 0.3923 -0.7649
vn 0.5790 0.3809 -0.7208
vn -0.0000 0.4279 -0.9038
vn -0.0000 1.0000 -0.0000
vn -0.0000 -1.0000 -0.0000
vn -0.0000 -0.1016 -0.9948
vn -0.5973 -0.0861 -0.7974
vn -0.5746 -0.0874 -0.8138
vn -0.0000 -0.0000 -1.0000
vn -0.5716 -0.0000 -0.8205
vn 0.5973 -0.0861 -0.7974
vn 0.5746 -0.0874 -0.8138
vn 0.5716 -0.0000 -0.8205
vn 0.9438 -0.0508 -0.3267
vn 0.9302 -0.0534 -0.3632
vn 0.9330 -0.0000 -0.3599
vn 0.9965 -0.0320 -0.0778
vn 0.9965 -0.0000 -0.0831
vn 0.5967 -0.1128 0.7945
vn 0.8055 -0.0929 0.5852
vn 0.5723 -0.1143 0.8120
vn 0.5716 -0.0000 0.8205
vn 0.7942 -0.0000 0.6076
vn -0.0000 -0.1296 0.9916
vn -0.0000 -0.0000 1.0000
vn -0.5967 -0.1128 0.7945
vn -0.5723 -0.1143 0.8120
vn -0.5716 -0.0000 0.8205
vn -0.8055 -0.0929 0.5852
vn -0.7942 -0.0000 0.6076
vn -0.9438 -0.0508 -0.3267
vn -0.9302 -0.0534 -0.3632
vn -0.9330 -0.0000 -0.3599
vn -0.9965 -0.0320 -0.0778
vn -0.9965 -0.0000 -0.0831
vn -0.3859 -0.7008 -0.6000
vn -0.0000 -0.7191 -0.6949
vn -0.4518 -0.6930 -0.5617
vn -0.0000 0.8153 -0.5791
vn -0.3235 0.7917 -0.5182
vn -0.4072 0.7764 -0.4810
vn 0.3859 -0.7008 -0.6000
vn 0.4518 -0.6930 -0.5617
vn 0.3235 0.7917 -0.5182
vn 0.4072 0.7764 -0.4810
vn 0.6809 -0.6494 -0.3386
vn 0.7528 -0.6271 -0.2001
vn 0.6230 0.7115 -0.3249
vn 0.7439 0.6469 -0.1675
vn 0.6234 -0.7489 0.2246
vn 0.7203 -0.6877 0.0909
vn 0.5710 0.7899 0.2235
vn 0.7177 0.6936 0.0620
vn 0.3293 -0.8031 0.4966
vn 0.3567 -0.8034 0.4768
vn 0.2793 0.8569 0.4332
vn 0.3237 0.8535 0.4084
vn -0.0000 -0.8019 0.5975
vn -0.0000 0.8656 0.5007
vn -0.3293 -0.8031 0.4966
vn -0.3567 -0.8034 0.4768
vn -0.2793 0.8569 0.4332
vn -0.3237 0.8535 0.4084
vn -0.6234 -0.7489 0.2246
vn -0.7203 -0.6877 0.0909
vn -0.5710 0.7899 0.2235
vn -0.7177 0.6936 0.0620
vn -0.6809 -0.6494 -0.3386
vn -0.7528 -0.6271 -0.2001
vn -0.6230 0.7115 -0.3249
vn -0.7439 0.6469 -0.1675
vt 0.955715 0.504078
vt 0.954672 0.044921
vt 0.968178 0.051009
vt 0.969052 0.497547
vt 0.956533 0.526828
vt 0.969794 0.518383
vt 0.956451 0.012885
vt 0.969794 0.021567
vt 0.055193 0.573051
vt 0.014327 0.586731
vt 0.012885 0.570718
vt 0.049933 0.558217
vt 0.245381 0.610605
vt 0.245180 0.561848
vt 0.261094 0.563401
vt 0.261193 0.607692
vt 0.262248 0.522388
vt 0.276801 0.527473
vt 0.820070 0.511883
vt 0.820515 0.963551
vt 0.807194 0.957505
vt 0.806646 0.518468
vt 0.819910 0.987115
vt 0.806646 0.979074
vt 0.830744 0.464324
vt 0.808383 0.474815
vt 0.806647 0.460853
vt 0.826927 0.451265
vt 0.778838 0.510479
vt 0.755886 0.500656
vt 0.760054 0.487577
vt 0.780876 0.496558
vt 0.241576 0.488418
vt 0.219554 0.492695
vt 0.198562 0.484118
vt 0.186619 0.465963
vt 0.186619 0.051385
vt 0.215121 0.021212
vt 0.257996 0.012885
vt 0.298865 0.029584
vt 0.322118 0.064930
vt 0.256216 0.472921
vt 0.125001 0.532446
vt 0.100921 0.527058
vt 0.084849 0.509126
vt 0.012885 0.070340
vt 0.038112 0.030824
vt 0.082677 0.012885
vt 0.129558 0.023375
vt 0.160848 0.058287
vt 0.160848 0.502936
vt 0.147891 0.523232
vt 0.875223 0.542991
vt 0.873890 0.530475
vt 0.886973 0.532265
vt 0.888322 0.544929
vt 0.566605 0.562474
vt 0.565127 0.548991
vt 0.624224 0.548566
vt 0.625702 0.562048
vt 0.928291 0.520395
vt 0.927201 0.534772
vt 0.914092 0.536624
vt 0.915195 0.522077
vt 0.711762 0.508798
vt 0.710605 0.524360
vt 0.651473 0.523957
vt 0.652630 0.508394
vt 0.928901 0.496905
vt 0.915813 0.498309
vt 0.712355 0.483777
vt 0.653223 0.483374
vt 0.928705 0.044268
vt 0.915621 0.041933
vt 0.710605 0.013289
vt 0.651473 0.012885
vt 0.927194 0.015561
vt 0.914092 0.012885
vt 0.186619 0.561238
vt 0.204358 0.518466
vt 0.251430 0.518466
vt 0.233690 0.561238
vt 0.311475 0.519320
vt 0.311475 0.567555
vt 0.302572 0.567272
vt 0.302572 0.518466
vt 0.187219 0.614547
vt 0.234290 0.614547
vt 0.095824 0.563097
vt 0.095825 0.605679
vt 0.088024 0.601303
vt 0.088024 0.558217
vt 0.057910 0.630391
vt 0.012885 0.645009
vt 0.017229 0.598139
vt 0.062253 0.583521
vt 0.873384 0.047592
vt 0.875231 0.015534
vt 0.888322 0.012885
vt 0.886453 0.045323
vt 0.564553 0.046781
vt 0.566605 0.013311
vt 0.625702 0.012885
vt 0.623651 0.046355
vt 0.873144 0.507782
vt 0.886218 0.509303
vt 0.564301 0.524884
vt 0.623398 0.524459
vt 0.374057 0.547418
vt 0.347889 0.555143
vt 0.347889 0.549334
vt 0.371730 0.541922
vt 0.777469 0.521821
vt 0.752246 0.511349
vt 0.538530 0.555143
vt 0.512362 0.547418
vt 0.514688 0.541922
vt 0.538530 0.549334
vt 0.834675 0.474903
vt 0.810079 0.486112
vt 0.496188 0.527192
vt 0.499953 0.522518
vt 0.847373 0.453378
vt 0.842188 0.443982
vt 0.456095 0.067303
vt 0.463424 0.075715
vt 0.812468 0.012885
vt 0.806646 0.020849
vt 0.487582 0.027926
vt 0.492112 0.037936
vt 0.538530 0.012885
vt 0.538530 0.023505
vt 0.347889 0.012885
vt 0.398837 0.027926
vt 0.394307 0.037936
vt 0.347889 0.023505
vt 0.430324 0.067303
vt 0.422994 0.075715
vt 0.742056 0.046712
vt 0.777031 0.012885
vt 0.780876 0.022325
vt 0.748868 0.054579
vt 0.390230 0.527192
vt 0.386465 0.522518
vt 0.738126 0.490139
vt 0.743094 0.480595
s 1
usemtl Cylinder
f 60/1/1 58/2/2 16/3/2 18/4/3
f 43/5/4 60/1/1 18/4/3 20/6/5
f 58/2/6 56/7/7 14/8/8 16/3/6
f 56/9/7 54/10/9 12/11/9 14/12/8
f 54/13/9 52/14/10 10/15/11 12/16/9
f 52/14/10 50/17/12 8/18/12 10/15/11
f 50/19/13 48/20/14 6/21/15 8/22/13
f 48/20/14 46/23/16 4/24/17 6/21/15
f 46/25/16 44/26/18 2/27/18 4/28/17
f 44/29/18 43/30/4 20/31/5 2/32/18
f 4/33/19 2/34/19 20/35/19 18/36/19 16/37/19 14/38/19 12/39/19 10/40/19 8/41/19 6/42/19
f 1/43/20 3/44/20 5/45/20 7/46/20 9/47/20 11/48/20 13/49/20 15/50/20 17/51/20 19/52/20
f 1/53/21 19/54/22 41/55/23 42/56/21
f 39/57/24 22/58/25 21/59/25 40/60/24
f 3/61/26 1/62/21 42/63/21 45/64/27
f 37/65/28 39/66/24 40/67/24 38/68/28
f 5/69/29 3/61/26 45/64/27 47/70/30
f 35/71/31 37/65/28 38/68/28 36/72/31
f 7/73/32 5/69/29 47/70/30 49/74/32
f 33/75/33 35/71/31 36/72/31 34/76/33
f 9/77/34 7/73/35 49/74/35 51/78/36
f 31/79/37 33/80/38 34/81/38 32/82/37
f 11/83/39 9/84/34 51/85/36 53/86/39
f 29/87/40 31/79/37 32/82/37 30/88/40
f 13/89/41 11/90/39 53/91/39 55/92/42
f 27/93/43 29/94/40 30/95/40 28/96/43
f 15/97/44 13/98/41 55/99/42 57/100/44
f 25/101/45 27/102/43 28/103/43 26/104/45
f 19/54/22 17/105/46 59/106/47 41/55/23
f 22/58/25 23/107/48 24/108/48 21/59/25
f 17/105/46 15/97/49 57/100/49 59/106/47
f 23/107/48 25/101/50 26/104/50 24/108/48
f 22/109/51 39/110/52 42/111/52 41/112/53
f 40/113/54 21/114/55 43/30/56 44/29/54
f 39/115/52 37/116/57 45/117/58 42/118/52
f 38/119/59 40/120/54 44/26/54 46/25/60
f 37/116/57 35/121/61 47/122/62 45/117/58
f 36/123/63 38/119/59 46/25/60 48/124/64
f 35/121/61 33/125/65 49/126/66 47/122/62
f 34/127/67 36/123/63 48/124/64 50/128/68
f 33/125/65 31/129/69 51/130/70 49/126/66
f 32/82/71 34/81/67 50/17/68 52/14/72
f 31/129/69 29/131/73 53/132/73 51/130/70
f 30/88/74 32/82/71 52/14/72 54/13/74
f 29/133/73 27/134/75 55/135/76 53/136/73
f 28/96/77 30/95/74 54/10/74 56/9/78
f 27/134/75 25/137/79 57/138/80 55/135/76
f 26/139/81 28/140/77 56/141/78 58/142/82
f 23/143/83 22/109/51 41/112/53 59/144/84
f 21/114/55 24/145/85 60/146/86 43/30/56
f 25/137/79 23/143/83 59/144/84 57/138/80
f 24/145/85 26/139/81 58/142/82 60/146/86
