# Blender 5.1.0
# www.blender.org
mtllib paper.mtl
o Cube
v 0.297000 0.039544 -0.210000
v 0.297000 0.037544 -0.210000
v 0.297000 0.089936 0.210000
v 0.297000 0.087936 0.210000
v -0.297000 0.041361 -0.210000
v -0.297000 0.039361 -0.210000
v -0.297000 0.001000 0.210000
v -0.297000 -0.001000 0.210000
v 0.198000 0.009026 -0.210000
v 0.099000 -0.001000 -0.210000
v -0.000000 -0.001000 -0.210000
v -0.099000 -0.001000 -0.210000
v -0.198000 0.016138 -0.210000
v 0.198000 0.030977 0.210000
v 0.099000 0.001000 0.210000
v -0.000000 0.006739 0.210000
v -0.099000 0.014516 0.210000
v -0.198000 0.006739 0.210000
v -0.198000 0.004739 0.210000
v -0.099000 0.012516 0.210000
v 0.000000 0.004739 0.210000
v 0.099000 -0.001000 0.210000
v 0.198000 0.028757 0.210000
v -0.198000 0.018138 -0.210000
v -0.099000 0.001000 -0.210000
v 0.000000 0.001000 -0.210000
v 0.099000 0.001000 -0.210000
v 0.198000 0.011026 -0.210000
v -0.297000 0.014155 -0.105000
v -0.297000 -0.001000 0.000000
v -0.297000 -0.001000 0.105000
v 0.297000 0.039544 -0.105000
v 0.297000 0.039544 0.000000
v 0.297000 0.058466 0.105000
v -0.297000 0.001000 0.105000
v -0.297000 0.001000 0.000000
v -0.297000 0.016155 -0.105000
v 0.297000 0.056466 0.105000
v 0.297000 0.037544 0.000000
v 0.297000 0.037544 -0.105000
v -0.198000 0.003106 -0.105000
v -0.198000 0.000374 0.000000
v -0.198000 0.004737 0.105000
v -0.099000 -0.001000 -0.105000
v -0.099000 0.004073 0.000000
v -0.099000 0.012511 0.105000
v -0.000000 -0.001000 -0.105000
v 0.000000 0.000374 0.000000
v 0.000000 0.004737 0.105000
v 0.099000 -0.001000 -0.105000
v 0.099000 -0.001000 0.000000
v 0.099000 -0.001000 0.105000
v 0.198000 0.009026 -0.105000
v 0.198000 0.009026 0.000000
v 0.198000 0.013431 0.105000
v 0.198000 0.011026 -0.105000
v 0.198000 0.011026 0.000000
v 0.198000 0.015526 0.105000
v 0.099000 0.001000 -0.105000
v 0.099000 0.001000 0.000000
v 0.099000 0.001000 0.105000
v 0.000000 0.001000 -0.105000
v 0.000000 0.002375 0.000000
v -0.000000 0.006739 0.105000
v -0.099000 0.001000 -0.105000
v -0.099000 0.006075 0.000000
v -0.099000 0.014516 0.105000
v -0.198000 0.005106 -0.105000
v -0.198000 0.002375 0.000000
v -0.198000 0.006739 0.105000
vn -0.0615 0.9977 -0.0283
vn -0.0447 0.9989 -0.0124
vn -0.0579 0.9983 -0.0000
vn -0.0666 0.9978 -0.0000
vn -0.0000 -0.0000 1.0000
vn -0.3389 -0.0000 0.9408
vn -0.9986 -0.0000 0.0521
vn -1.0000 -0.0000 -0.0000
vn -0.6989 -0.0000 -0.7152
vn -0.5767 -0.0000 -0.8170
vn 0.2595 -0.9623 0.0818
vn 0.4487 -0.8725 0.1932
vn 0.4500 -0.8717 0.1942
vn 0.4451 -0.8748 0.1916
vn 1.0000 -0.0000 -0.0000
vn 0.8933 -0.0000 0.4494
vn 0.5761 -0.0000 0.8174
vn -0.0000 -0.0000 -1.0000
vn 0.9999 -0.0000 -0.0105
vn 0.3344 -0.0000 -0.9424
vn 0.0447 -0.9989 0.0124
vn 0.0615 -0.9977 0.0283
vn 0.0666 -0.9978 -0.0000
vn 0.0579 -0.9983 -0.0000
vn -0.0000 -1.0000 0.0029
vn -0.0000 -1.0000 -0.0000
vn -0.0615 -0.9977 0.0283
vn -0.0666 -0.9978 -0.0000
vn 0.0008 -0.9998 0.0185
vn -0.0011 -0.9999 0.0148
vn -0.4476 0.8730 -0.1938
vn -0.2606 0.9619 -0.0824
vn -0.4440 0.8751 -0.1923
vn -0.4488 0.8721 -0.1949
vn -0.0008 0.9998 -0.0185
vn 0.0011 0.9999 -0.0148
vn 0.0615 0.9977 -0.0283
vn 0.0666 0.9978 -0.0000
vn -0.0000 1.0000 -0.0029
vn -0.0000 1.0000 -0.0000
vn 0.0030 1.0000 0.0018
vn 0.1664 0.9706 0.1738
vn 0.0546 0.9971 0.0534
vn 0.0046 1.0000 -0.0018
vn -0.0069 0.9999 0.0089
vn 0.0011 0.9986 -0.0523
vn 0.0019 1.0000 -0.0024
vn 0.0224 0.9995 -0.0225
vn -0.0033 1.0000 -0.0000
vn -0.0029 1.0000 -0.0017
vn -0.0019 1.0000 -0.0093
vn -0.1482 0.9890 -0.0000
vn -0.1362 0.9906 -0.0120
vn -0.2768 0.9609 -0.0000
vn -0.3147 0.9470 -0.0641
vn 0.0033 -1.0000 -0.0000
vn 0.1482 -0.9890 -0.0000
vn 0.0029 -1.0000 0.0017
vn 0.1360 -0.9906 0.0118
vn 0.0019 -1.0000 0.0092
vn -0.0019 -1.0000 0.0024
vn -0.0223 -0.9995 0.0225
vn -0.0030 -1.0000 -0.0018
vn -0.0046 -1.0000 0.0018
vn -0.0011 -0.9986 0.0523
vn -0.1664 -0.9706 -0.1738
vn -0.0546 -0.9971 -0.0534
vn 0.0069 -0.9999 -0.0089
vn -0.1679 -0.9699 -0.1766
vn -0.1635 -0.9712 -0.1732
vn 0.0299 -0.9995 0.0132
vn 0.2768 -0.9609 -0.0000
vn 0.3149 -0.9470 0.0638
vn 0.1679 0.9699 0.1766
vn 0.1635 0.9712 0.1732
vn -0.0299 0.9995 -0.0132
vt 0.524275 0.221653
vt 0.524275 0.074568
vt 0.680275 0.074568
vt 0.680275 0.221653
vt 0.680275 0.221653
vt 0.212274 0.074568
vt 0.212274 0.074568
vt 0.056274 0.074568
vt 0.524275 0.809997
vt 0.524275 0.957083
vt 0.680275 0.957083
vt 0.680275 0.809997
vt 0.524275 0.957083
vt 0.056274 0.809997
vt 0.056274 0.957083
vt 0.056274 0.221653
vt 0.056274 0.221653
vt 0.056274 0.368739
vt 0.056274 0.368739
vt 0.056274 0.515825
vt 0.056274 0.515825
vt 0.056274 0.662911
vt 0.056274 0.662911
vt 0.524275 0.074568
vt 0.524275 0.221653
vt 0.524275 0.368739
vt 0.680275 0.368739
vt 0.524275 0.515825
vt 0.680275 0.515825
vt 0.524275 0.662911
vt 0.680275 0.662911
vt 0.680275 0.809997
vt 0.680275 0.515825
vt 0.680275 0.368739
vt 0.212274 0.221653
vt 0.212274 0.368739
vt 0.368275 0.221653
vt 0.368275 0.368739
vt 0.212274 0.515825
vt 0.368275 0.515825
vt 0.212274 0.662911
vt 0.368275 0.662911
vt 0.212274 0.809997
vt 0.368275 0.809997
vt 0.212274 0.957083
vt 0.368275 0.957083
vt 0.212274 0.809997
vt 0.368275 0.809997
vt 0.212274 0.368739
vt 0.368275 0.368739
vt 0.212274 0.221653
vt 0.368275 0.221653
vt 0.368275 0.074568
vt 0.212274 0.957083
vt 0.368275 0.957083
vt 0.368275 0.074568
s 1
usemtl Material
f 70/1/1 35/2/2 7/3/3 18/4/4
f 19/5/5 18/4/5 7/3/6 8/3/7
f 29/6/8 37/7/8 5/8/9 6/8/10
f 55/9/11 38/10/12 4/11/13 23/12/14
f 38/10/15 34/13/15 3/11/16 4/11/17
f 9/14/18 28/14/18 1/15/19 2/15/20
f 6/8/10 5/8/9 24/16/18 13/17/18
f 13/17/18 24/16/18 25/18/18 12/19/18
f 12/19/18 25/18/18 26/20/18 11/21/18
f 11/21/18 26/20/18 27/22/18 10/23/18
f 10/23/18 27/22/18 28/14/18 9/14/18
f 31/24/21 43/25/22 19/5/23 8/3/24
f 43/25/22 46/26/25 20/27/26 19/5/23
f 46/26/25 49/28/27 21/29/28 20/27/26
f 49/28/27 52/30/29 22/31/30 21/29/28
f 52/30/29 55/9/11 23/12/14 22/31/30
f 4/11/17 3/11/16 14/32/5 23/12/5
f 23/12/5 14/32/5 15/31/5 22/31/5
f 22/31/5 15/31/5 16/33/5 21/29/5
f 21/29/5 16/33/5 17/34/5 20/27/5
f 20/27/5 17/34/5 18/4/5 19/5/5
f 34/13/31 58/9/32 14/32/33 3/11/34
f 58/9/32 61/30/35 15/31/36 14/32/33
f 61/30/35 64/28/37 16/33/38 15/31/36
f 64/28/37 67/26/39 17/34/40 16/33/38
f 67/26/39 70/1/1 18/4/4 17/34/40
f 25/18/41 24/16/42 68/35/43 65/36/44
f 65/36/44 68/35/43 69/37/45 66/38/46
f 66/38/46 69/37/45 70/1/1 67/26/39
f 26/20/40 25/18/41 65/36/44 62/39/47
f 62/39/47 65/36/44 66/38/46 63/40/48
f 63/40/48 66/38/46 67/26/39 64/28/37
f 27/22/49 26/20/40 62/39/47 59/41/50
f 59/41/50 62/39/47 63/40/48 60/42/51
f 60/42/51 63/40/48 64/28/37 61/30/35
f 28/14/52 27/22/49 59/41/50 56/43/52
f 56/43/52 59/41/50 60/42/51 57/44/53
f 57/44/53 60/42/51 61/30/35 58/9/32
f 1/15/54 28/14/52 56/43/52 32/45/54
f 32/45/54 56/43/52 57/44/53 33/46/55
f 33/46/55 57/44/53 58/9/32 34/13/31
f 10/23/56 9/14/57 53/47/57 50/41/58
f 50/41/58 53/47/57 54/48/59 51/42/60
f 51/42/60 54/48/59 55/9/11 52/30/29
f 11/21/26 10/23/56 50/41/58 47/39/61
f 47/39/61 50/41/58 51/42/60 48/40/62
f 48/40/62 51/42/60 52/30/29 49/28/27
f 12/19/63 11/21/26 47/39/61 44/49/64
f 44/49/64 47/39/61 48/40/62 45/50/65
f 45/50/65 48/40/62 49/28/27 46/26/25
f 13/17/66 12/19/63 44/49/64 41/51/67
f 41/51/67 44/49/64 45/50/65 42/52/68
f 42/52/68 45/50/65 46/26/25 43/25/22
f 6/8/69 13/17/66 41/51/67 29/6/70
f 29/6/70 41/51/67 42/52/68 30/53/71
f 30/53/71 42/52/68 43/25/22 31/24/21
f 2/15/20 1/15/19 32/45/15 40/54/15
f 40/54/15 32/45/15 33/46/15 39/55/15
f 39/55/15 33/46/15 34/13/15 38/10/15
f 9/14/57 2/15/72 40/54/72 53/47/57
f 53/47/57 40/54/72 39/55/73 54/48/59
f 54/48/59 39/55/73 38/10/12 55/9/11
f 8/3/7 7/3/6 35/2/8 31/24/8
f 31/24/8 35/2/8 36/56/8 30/53/8
f 30/53/8 36/56/8 37/7/8 29/6/8
f 24/16/42 5/8/74 37/7/75 68/35/43
f 68/35/43 37/7/75 36/56/76 69/37/45
f 69/37/45 36/56/76 35/2/2 70/1/1
