# Blender 5.1.0
# www.blender.org
mtllib table.mtl
o platte
v 0.950000 1.499537 -1.600000
v 0.950000 1.222417 -1.600000
v 0.950000 1.499537 1.600000
v 0.950000 1.222417 1.600000
v -0.950000 1.499537 -1.600000
v -0.950000 1.222417 -1.600000
v -0.950000 1.499537 1.600000
v -0.950000 1.222417 1.600000
v 0.596997 -0.000463 -1.565635
v 0.596997 1.276179 -1.565635
v 0.920329 -0.000463 -1.557226
v 0.920329 1.276179 -1.557226
v 0.588588 -0.000463 -1.242302
v 0.588588 1.276179 -1.242302
v 0.911921 -0.000463 -1.233893
v 0.911921 1.276179 -1.233893
v -0.573958 -0.000463 -1.533315
v -0.573958 1.276179 -1.533315
v -0.573958 -0.000463 -1.209873
v -0.573958 1.276179 -1.209873
v -0.897400 -0.000463 -1.533315
v -0.897400 1.276179 -1.533315
v -0.897400 -0.000463 -1.209873
v -0.897400 1.276179 -1.209873
v 0.578653 -0.000463 1.561485
v 0.578653 1.276179 1.561485
v 0.578653 -0.000463 1.238043
v 0.578653 1.276179 1.238043
v 0.902095 -0.000463 1.561485
v 0.902095 1.276179 1.561485
v 0.902095 -0.000463 1.238043
v 0.902095 1.276179 1.238043
v -0.569509 -0.000463 1.551040
v -0.569509 1.276179 1.551040
v -0.891651 -0.000463 1.580018
v -0.891651 1.276179 1.580018
v -0.598487 -0.000463 1.228899
v -0.598487 1.276179 1.228899
v -0.920629 -0.000463 1.257877
v -0.920629 1.276179 1.257877
vn -0.0000 1.0000 -0.0000
vn -0.0000 -0.0000 1.0000
vn -1.0000 -0.0000 -0.0000
vn -0.0000 -1.0000 -0.0000
vn 1.0000 -0.0000 -0.0000
vn -0.0000 -0.0000 -1.0000
vn 0.0260 -0.0000 -0.9997
vn 0.9997 -0.0000 0.0260
vn -0.0260 -0.0000 0.9997
vn -0.9997 -0.0000 -0.0260
vn 0.0896 -0.0000 0.9960
vn -0.9960 -0.0000 0.0896
vn -0.0896 -0.0000 -0.9960
vn 0.9960 -0.0000 -0.0896
vt 0.685356 0.429185
vt 0.685356 0.803589
vt 0.054781 0.803589
vt 0.054781 0.429185
vt 0.000173 0.429185
vt 0.000173 0.803589
vt 0.054781 0.858197
vt 0.685356 0.858197
vt 0.685356 0.000173
vt 0.685356 0.374577
vt 0.054781 0.374577
vt 0.054781 0.000173
vt 0.739964 0.803589
vt 0.739964 0.429185
vt 0.792769 0.315255
vt 0.999827 0.315256
vt 0.999827 0.367714
vt 0.792769 0.367714
vt 0.999827 0.420173
vt 0.792769 0.420173
vt 0.792769 0.210338
vt 0.999827 0.210338
vt 0.999827 0.262797
vt 0.792769 0.262797
vt 0.740310 0.367714
vt 0.740310 0.315255
vt 0.792769 0.315272
vt 0.999827 0.315272
vt 0.999827 0.367731
vt 0.792769 0.367731
vt 0.999827 0.420190
vt 0.792769 0.420190
vt 0.792769 0.210355
vt 0.999827 0.210355
vt 0.999827 0.262813
vt 0.792769 0.262813
vt 0.740310 0.367731
vt 0.740310 0.315272
vt 0.792769 0.315249
vt 0.999827 0.315249
vt 0.999827 0.367708
vt 0.792769 0.367708
vt 0.999827 0.420166
vt 0.792769 0.420166
vt 0.792769 0.210331
vt 0.999827 0.210331
vt 0.999827 0.262790
vt 0.792769 0.262790
vt 0.740310 0.367708
vt 0.740310 0.315249
vt 0.792769 0.315322
vt 0.999827 0.315322
vt 0.999827 0.367781
vt 0.792769 0.367781
vt 0.999827 0.420240
vt 0.792769 0.420240
vt 0.792769 0.210405
vt 0.999827 0.210405
vt 0.999827 0.262864
vt 0.792769 0.262864
vt 0.740310 0.367781
vt 0.740310 0.315322
s 0
usemtl Material
f 1/1/1 5/2/1 7/3/1 3/4/1
f 4/5/2 3/4/2 7/3/2 8/6/2
f 8/7/3 7/3/3 5/2/3 6/8/3
f 6/9/4 2/10/4 4/11/4 8/12/4
f 2/10/5 1/1/5 3/4/5 4/11/5
f 6/13/6 5/2/6 1/1/6 2/14/6
f 9/15/7 10/16/7 12/17/7 11/18/7
f 11/18/8 12/17/8 16/19/8 15/20/8
f 15/21/9 16/22/9 14/23/9 13/24/9
f 13/24/10 14/23/10 10/16/10 9/15/10
f 11/18/4 15/25/4 13/26/4 9/15/4
f 17/27/5 18/28/5 20/29/5 19/30/5
f 19/30/2 20/29/2 24/31/2 23/32/2
f 23/33/3 24/34/3 22/35/3 21/36/3
f 21/36/6 22/35/6 18/28/6 17/27/6
f 19/30/4 23/37/4 21/38/4 17/27/4
f 25/39/3 26/40/3 28/41/3 27/42/3
f 27/42/6 28/41/6 32/43/6 31/44/6
f 31/45/5 32/46/5 30/47/5 29/48/5
f 29/48/2 30/47/2 26/40/2 25/39/2
f 27/42/4 31/49/4 29/50/4 25/39/4
f 33/51/11 34/52/11 36/53/11 35/54/11
f 35/54/12 36/53/12 40/55/12 39/56/12
f 39/57/13 40/58/13 38/59/13 37/60/13
f 37/60/14 38/59/14 34/52/14 33/51/14
f 35/54/4 39/61/4 37/62/4 33/51/4
