# Blender 5.0.1
# www.blender.org
mtllib trenner.mtl
o Cylinder
v 0.000000 -0.000030 -0.039872
v 0.000000 0.032571 -0.039872
v 0.007307 -0.000030 -0.037498
v 0.007307 0.032571 -0.037498
v 0.011823 -0.000030 -0.031282
v 0.011823 0.032571 -0.031282
v 0.011823 -0.000030 0.031099
v 0.011823 0.032571 0.031099
v 0.007307 -0.000030 0.037314
v 0.007307 0.032571 0.037314
v 0.000000 -0.000030 0.039689
v 0.000000 0.032571 0.039689
v -0.007307 -0.000030 0.037314
v -0.007307 0.032571 0.037314
v -0.011823 -0.000030 0.031099
v -0.011823 0.032571 0.031099
v -0.011823 -0.000030 -0.031282
v -0.011823 0.032571 -0.031282
v -0.007307 -0.000030 -0.037498
v -0.007307 0.032571 -0.037498
v 0.000000 0.006645 -0.039872
v -0.000000 0.021386 -0.036288
v 0.000000 0.025624 -0.039872
v 0.007307 0.025624 -0.037498
v 0.005780 0.021386 -0.034128
v 0.007307 0.006645 -0.037498
v 0.011823 0.025624 -0.031282
v 0.009352 0.021386 -0.028472
v 0.011823 0.006645 -0.031282
v 0.011823 0.025624 0.031099
v 0.009352 0.021386 0.028288
v 0.011823 0.006645 0.031099
v 0.007307 0.025624 0.037314
v 0.005780 0.021386 0.033944
v 0.007307 0.006645 0.037314
v 0.000000 0.025624 0.039689
v -0.000000 0.021386 0.036104
v 0.000000 0.006645 0.039689
v -0.007307 0.025624 0.037314
v -0.005780 0.021386 0.033944
v -0.007307 0.006645 0.037314
v -0.011823 0.025624 0.031099
v -0.009352 0.021386 0.028288
v -0.011823 0.006645 0.031099
v -0.011823 0.025624 -0.031282
v -0.009352 0.021386 -0.028472
v -0.011823 0.006645 -0.031282
v -0.007307 0.025624 -0.037498
v -0.005780 0.021386 -0.034128
v -0.007307 0.006645 -0.037498
v 0.000000 0.010834 -0.036763
v 0.005856 0.010834 -0.034574
v 0.009475 0.010834 -0.028844
v 0.009475 0.010834 0.028661
v 0.005856 0.010834 0.034390
v 0.000000 0.010834 0.036579
v -0.005856 0.010834 0.034390
v -0.009475 0.010834 0.028661
v -0.009475 0.010834 -0.028844
v -0.005856 0.010834 -0.034574
vn -0.0000 -0.2860 -0.9582
vn -0.0000 -0.0000 -1.0000
vn 0.5878 -0.0000 -0.8090
vn 0.5609 -0.2826 -0.7782
vn 0.9511 -0.0000 -0.3090
vn 0.9114 -0.2622 -0.3171
vn 0.9511 -0.0000 0.3090
vn 0.9114 -0.2622 0.3171
vn 0.5878 -0.0000 0.8090
vn 0.5609 -0.2826 0.7782
vn -0.0000 -0.0000 1.0000
vn -0.0000 -0.2860 0.9582
vn -0.5878 -0.0000 0.8090
vn -0.5609 -0.2826 0.7782
vn -0.9511 -0.0000 0.3090
vn -0.9114 -0.2622 0.3171
vn -0.9511 -0.0000 -0.3090
vn -0.9114 -0.2622 -0.3171
vn -0.0000 1.0000 -0.0000
vn -0.5878 -0.0000 -0.8090
vn -0.5609 -0.2826 -0.7782
vn -0.0000 -1.0000 -0.0000
vn -0.5647 0.2672 -0.7808
vn -0.0000 0.2683 -0.9633
vn -0.5914 0.3379 -0.7322
vn -0.6043 -0.3186 -0.7303
vn -0.0000 0.0450 -0.9990
vn -0.0000 0.3466 -0.9380
vn -0.0000 -0.6619 -0.7496
vn -0.9148 0.2514 -0.3161
vn -0.9260 0.2904 -0.2411
vn -0.9328 -0.2783 -0.2289
vn -0.9148 0.2514 0.3161
vn -0.9260 0.2904 0.2411
vn -0.9328 -0.2783 0.2289
vn -0.5647 0.2672 0.7808
vn -0.5914 0.3379 0.7322
vn -0.6043 -0.3186 0.7303
vn -0.0000 0.2683 0.9633
vn -0.0000 0.3466 0.9380
vn -0.0000 0.0450 0.9990
vn -0.0000 -0.6619 0.7496
vn 0.5647 0.2672 0.7808
vn 0.5914 0.3379 0.7322
vn 0.6043 -0.3186 0.7303
vn 0.9148 0.2514 0.3161
vn 0.9260 0.2904 0.2411
vn 0.9328 -0.2783 0.2289
vn 0.9148 0.2514 -0.3161
vn 0.9260 0.2904 -0.2411
vn 0.9328 -0.2783 -0.2289
vn 0.5647 0.2672 -0.7808
vn 0.5914 0.3379 -0.7322
vn 0.6043 -0.3186 -0.7303
vt 0.048859 0.634064
vt 0.018613 0.634055
vt 0.017946 0.592424
vt 0.048192 0.592434
vt 0.314679 0.592434
vt 0.344929 0.592424
vt 0.344929 0.644422
vt 0.314679 0.644432
vt 0.885709 0.018158
vt 0.915958 0.017946
vt 0.914818 0.364891
vt 0.884569 0.365104
vt 0.915200 0.416888
vt 0.884951 0.417100
vt 0.915958 0.458289
vt 0.885709 0.458502
vt 0.914818 0.934950
vt 0.884569 0.934737
vt 0.885327 0.893336
vt 0.915576 0.893548
vt 0.885709 0.841339
vt 0.915958 0.841551
vt 0.884569 0.494394
vt 0.914818 0.494606
vt 0.147446 0.540460
vt 0.097982 0.556532
vt 0.048517 0.540460
vt 0.017946 0.498383
vt 0.017946 0.076095
vt 0.048517 0.034018
vt 0.097982 0.017946
vt 0.147446 0.034018
vt 0.178017 0.076095
vt 0.178017 0.498383
vt 0.048192 0.728584
vt 0.017946 0.728575
vt 0.018613 0.686059
vt 0.048859 0.686069
vt 0.293945 0.556532
vt 0.244480 0.540460
vt 0.213909 0.498383
vt 0.213909 0.076095
vt 0.244480 0.034018
vt 0.293945 0.017946
vt 0.343409 0.034018
vt 0.373980 0.076095
vt 0.373980 0.498383
vt 0.343409 0.540460
vt 0.114478 0.686068
vt 0.085418 0.686059
vt 0.085418 0.634055
vt 0.114478 0.634064
vt 0.232462 0.628550
vt 0.278463 0.627674
vt 0.278787 0.669426
vt 0.232791 0.670850
vt 0.529036 0.517644
vt 0.539372 0.540460
vt 0.489908 0.556532
vt 0.489908 0.532268
vt 0.113811 0.728584
vt 0.084751 0.728575
vt 0.232791 0.592838
vt 0.278787 0.592424
vt 0.553218 0.479358
vt 0.569943 0.498383
vt 0.982054 0.365095
vt 0.952991 0.364891
vt 0.951851 0.017946
vt 0.980914 0.018150
vt 0.848677 0.774093
vt 0.802713 0.772155
vt 0.801799 0.456471
vt 0.847751 0.454267
vt 0.553218 0.095120
vt 0.569943 0.076095
vt 0.981672 0.417092
vt 0.952609 0.416888
vt 0.848367 0.819927
vt 0.802407 0.817395
vt 0.529036 0.056835
vt 0.539372 0.034018
vt 0.980914 0.458494
vt 0.951851 0.458289
vt 0.847751 0.854696
vt 0.801799 0.851714
vt 0.489908 0.042211
vt 0.489908 0.017946
vt 0.952232 0.893532
vt 0.981296 0.893327
vt 0.982054 0.934729
vt 0.952991 0.934933
vt 0.802109 0.383606
vt 0.848069 0.381074
vt 0.848677 0.415393
vt 0.802725 0.418375
vt 0.450780 0.056835
vt 0.440443 0.034018
vt 0.951851 0.841535
vt 0.980914 0.841331
vt 0.801798 0.337772
vt 0.847763 0.335834
vt 0.426598 0.095120
vt 0.409872 0.076095
vt 0.952991 0.494590
vt 0.982054 0.494386
vt 0.802725 0.017946
vt 0.848677 0.020150
vt 0.426598 0.479358
vt 0.409872 0.498383
vt 0.380821 0.592434
vt 0.409885 0.592424
vt 0.409885 0.644422
vt 0.380821 0.644432
vt 0.150370 0.627199
vt 0.196357 0.629202
vt 0.196570 0.674442
vt 0.150587 0.673033
vt 0.450780 0.517644
vt 0.440443 0.540460
vt 0.084751 0.592424
vt 0.113811 0.592434
vt 0.150587 0.592424
vt 0.196570 0.594878
vt 0.685871 0.556532
vt 0.685871 0.535483
vt 0.725512 0.520667
vt 0.735335 0.540460
vt 0.750012 0.481879
vt 0.765906 0.498383
vt 0.750012 0.092600
vt 0.765906 0.076095
vt 0.725512 0.053812
vt 0.735335 0.034018
vt 0.685871 0.038996
vt 0.685871 0.017946
vt 0.646230 0.053812
vt 0.636406 0.034018
vt 0.621730 0.092600
vt 0.605835 0.076095
vt 0.621730 0.481879
vt 0.605835 0.498383
vt 0.646230 0.520667
vt 0.636406 0.540460
s 1
usemtl Cylinder
f 23/1/1 2/2/2 4/3/3 24/4/4
f 24/5/4 4/6/3 6/7/5 27/8/6
f 27/9/6 6/10/5 8/11/7 30/12/8
f 30/12/8 8/11/7 10/13/9 33/14/10
f 33/14/10 10/13/9 12/15/11 36/16/12
f 36/17/12 12/18/11 14/19/13 39/20/14
f 39/20/14 14/19/13 16/21/15 42/22/16
f 42/22/16 16/21/15 18/23/17 45/24/18
f 4/25/19 2/26/19 20/27/19 18/28/19 16/29/19 14/30/19 12/31/19 10/32/19 8/33/19 6/34/19
f 45/35/18 18/36/17 20/37/20 48/38/21
f 48/38/21 20/37/20 2/2/2 23/1/1
f 1/39/22 3/40/22 5/41/22 7/42/22 9/43/22 11/44/22 13/45/22 15/46/22 17/47/22 19/48/22
f 19/49/20 50/50/23 21/51/24 1/52/2
f 60/53/25 49/54/26 22/55/27 51/56/28
f 49/57/26 48/58/21 23/59/1 22/60/29
f 17/61/17 47/62/30 50/50/23 19/49/20
f 59/63/31 46/64/32 49/54/26 60/53/25
f 46/65/32 45/66/18 48/58/21 49/57/26
f 15/67/15 44/68/33 47/69/30 17/70/17
f 58/71/34 43/72/35 46/73/32 59/74/31
f 43/75/35 42/76/16 45/66/18 46/65/32
f 13/77/13 41/78/36 44/68/33 15/67/15
f 57/79/37 40/80/38 43/72/35 58/71/34
f 40/81/38 39/82/14 42/76/16 43/75/35
f 11/83/11 38/84/39 41/78/36 13/77/13
f 56/85/40 37/86/41 40/80/38 57/79/37
f 37/87/42 36/88/12 39/82/14 40/81/38
f 9/89/9 35/90/43 38/91/39 11/92/11
f 55/93/44 34/94/45 37/95/41 56/96/40
f 34/97/45 33/98/10 36/88/12 37/87/42
f 7/99/7 32/100/46 35/90/43 9/89/9
f 54/101/47 31/102/48 34/94/45 55/93/44
f 31/103/48 30/104/8 33/98/10 34/97/45
f 5/105/5 29/106/49 32/100/46 7/99/7
f 53/107/50 28/108/51 31/102/48 54/101/47
f 28/109/51 27/110/6 30/104/8 31/103/48
f 3/111/3 26/112/52 29/113/49 5/114/5
f 52/115/53 25/116/54 28/117/51 53/118/50
f 25/119/54 24/120/4 27/110/6 28/109/51
f 1/52/2 21/51/24 26/121/52 3/122/3
f 51/123/28 22/124/27 25/116/54 52/115/53
f 22/60/29 23/59/1 24/120/4 25/119/54
f 21/125/24 51/126/28 52/127/53 26/128/52
f 26/128/52 52/127/53 53/129/50 29/130/49
f 29/130/49 53/129/50 54/131/47 32/132/46
f 32/132/46 54/131/47 55/133/44 35/134/43
f 35/134/43 55/133/44 56/135/40 38/136/39
f 38/136/39 56/135/40 57/137/37 41/138/36
f 41/138/36 57/137/37 58/139/34 44/140/33
f 44/140/33 58/139/34 59/141/31 47/142/30
f 47/142/30 59/141/31 60/143/25 50/144/23
f 50/144/23 60/143/25 51/126/28 21/125/24
