# Blender 5.1.0
# www.blender.org
mtllib payphonebody.mtl
o PayphoneBody
v 0.000157 -1.000000 0.725421
v 0.000157 1.000000 0.725421
v 0.000157 -1.000000 -0.725421
v 0.000157 1.000000 -0.725421
v 0.443450 -0.909344 0.634425
v 0.344435 -1.000000 0.725421
v 0.411198 -0.973447 0.698769
v 0.517612 1.000000 0.725421
v 0.600927 0.909344 0.634425
v 0.579776 0.973447 0.698769
v 0.443450 -0.909344 -0.634425
v 0.344435 -1.000000 -0.725421
v 0.411198 -0.973447 -0.698769
v 0.600927 0.909344 -0.634425
v 0.517612 1.000000 -0.725421
v 0.579776 0.973447 -0.698769
v 0.451473 -0.387159 0.088616
v 0.470424 -0.195211 0.088616
v 0.451473 -0.387159 -0.104266
v 0.470424 -0.195211 -0.104266
v 0.646032 -0.379671 0.062049
v 0.585354 -0.400377 0.088616
v 0.659762 -0.240600 0.062049
v 0.604305 -0.208429 0.088616
v 0.646032 -0.379671 -0.077699
v 0.585354 -0.400377 -0.104266
v 0.659762 -0.240600 -0.077699
v 0.604305 -0.208429 -0.104266
v 0.451473 -0.387159 -0.104266
v 0.470424 -0.195211 -0.104266
v 0.451473 -0.387159 -0.297147
v 0.470424 -0.195211 -0.297147
v 0.646032 -0.379671 -0.130833
v 0.585354 -0.400377 -0.104266
v 0.659762 -0.240600 -0.130833
v 0.604305 -0.208429 -0.104266
v 0.646032 -0.379671 -0.270580
v 0.585354 -0.400377 -0.297147
v 0.659762 -0.240600 -0.270580
v 0.604305 -0.208429 -0.297147
v 0.451473 -0.387159 -0.297147
v 0.470424 -0.195211 -0.297147
v 0.451473 -0.387159 -0.490028
v 0.470424 -0.195211 -0.490028
v 0.646032 -0.379671 -0.323714
v 0.585354 -0.400377 -0.297147
v 0.659762 -0.240600 -0.323714
v 0.604305 -0.208429 -0.297147
v 0.646032 -0.379671 -0.463461
v 0.585354 -0.400377 -0.490028
v 0.659762 -0.240600 -0.463461
v 0.604305 -0.208429 -0.490028
v 0.470424 -0.195211 0.088616
v 0.489375 -0.003263 0.088616
v 0.470424 -0.195211 -0.104266
v 0.489375 -0.003263 -0.104266
v 0.664982 -0.187723 0.062049
v 0.604305 -0.208429 0.088616
v 0.678713 -0.048652 0.062049
v 0.623255 -0.016481 0.088616
v 0.664982 -0.187723 -0.077699
v 0.604305 -0.208429 -0.104266
v 0.678713 -0.048652 -0.077699
v 0.623255 -0.016481 -0.104266
v 0.470424 -0.195211 -0.104266
v 0.489375 -0.003263 -0.104266
v 0.470424 -0.195211 -0.297147
v 0.489375 -0.003263 -0.297147
v 0.664982 -0.187723 -0.130833
v 0.604305 -0.208429 -0.104266
v 0.678713 -0.048652 -0.130833
v 0.623255 -0.016481 -0.104266
v 0.664982 -0.187723 -0.270580
v 0.604305 -0.208429 -0.297147
v 0.678713 -0.048652 -0.270580
v 0.623255 -0.016481 -0.297147
v 0.470424 -0.195211 -0.297147
v 0.489375 -0.003263 -0.297147
v 0.470424 -0.195211 -0.490028
v 0.489375 -0.003263 -0.490028
v 0.664982 -0.187723 -0.323714
v 0.604305 -0.208429 -0.297147
v 0.678713 -0.048652 -0.323714
v 0.623255 -0.016481 -0.297147
v 0.664982 -0.187723 -0.463461
v 0.604305 -0.208429 -0.490028
v 0.678713 -0.048652 -0.463461
v 0.623255 -0.016481 -0.490028
v 0.489375 -0.003263 0.088616
v 0.508325 0.188685 0.088616
v 0.489375 -0.003263 -0.104266
v 0.508325 0.188685 -0.104266
v 0.683933 0.004225 0.062049
v 0.623255 -0.016481 0.088616
v 0.697663 0.143296 0.062049
v 0.642206 0.175468 0.088616
v 0.683933 0.004225 -0.077699
v 0.623255 -0.016481 -0.104266
v 0.697663 0.143296 -0.077699
v 0.642206 0.175468 -0.104266
v 0.489375 -0.003263 -0.104266
v 0.508325 0.188685 -0.104266
v 0.489375 -0.003263 -0.297147
v 0.508325 0.188685 -0.297147
v 0.683933 0.004225 -0.130833
v 0.623255 -0.016481 -0.104266
v 0.697663 0.143296 -0.130833
v 0.642206 0.175468 -0.104266
v 0.683933 0.004225 -0.270580
v 0.623255 -0.016481 -0.297147
v 0.697663 0.143296 -0.270580
v 0.642206 0.175468 -0.297147
v 0.489375 -0.003263 -0.297147
v 0.508325 0.188685 -0.297147
v 0.489375 -0.003263 -0.490028
v 0.508325 0.188685 -0.490028
v 0.683933 0.004225 -0.323714
v 0.623255 -0.016481 -0.297147
v 0.697663 0.143296 -0.323714
v 0.642206 0.175468 -0.297147
v 0.683933 0.004225 -0.463461
v 0.623255 -0.016481 -0.490028
v 0.697663 0.143296 -0.463461
v 0.642206 0.175468 -0.490028
v 0.508325 0.188685 0.088616
v 0.527276 0.380634 0.088616
v 0.508325 0.188685 -0.104266
v 0.527276 0.380634 -0.104266
v 0.702884 0.196173 0.062049
v 0.642206 0.175468 0.088616
v 0.716614 0.335245 0.062049
v 0.661157 0.367416 0.088616
v 0.702884 0.196173 -0.077699
v 0.642206 0.175468 -0.104266
v 0.716614 0.335245 -0.077699
v 0.661157 0.367416 -0.104266
v 0.508325 0.188685 -0.104266
v 0.527276 0.380634 -0.104266
v 0.508325 0.188685 -0.297147
v 0.527276 0.380634 -0.297147
v 0.702884 0.196173 -0.130833
v 0.642206 0.175468 -0.104266
v 0.716614 0.335245 -0.130833
v 0.661157 0.367416 -0.104266
v 0.702884 0.196173 -0.270580
v 0.642206 0.175468 -0.297147
v 0.716614 0.335245 -0.270580
v 0.661157 0.367416 -0.297147
v 0.508325 0.188685 -0.297147
v 0.527276 0.380634 -0.297147
v 0.508325 0.188685 -0.490028
v 0.527276 0.380634 -0.490028
v 0.702884 0.196173 -0.323714
v 0.642206 0.175468 -0.297147
v 0.716614 0.335245 -0.323714
v 0.661157 0.367416 -0.297147
v 0.702884 0.196173 -0.463461
v 0.642206 0.175468 -0.490028
v 0.716614 0.335245 -0.463461
v 0.661157 0.367416 -0.490028
v 0.549078 0.817792 0.097062
v 0.664034 0.807647 0.097062
v 0.549078 0.817792 -0.492433
v 0.664034 0.807647 -0.492433
v 0.522881 0.520941 0.097062
v 0.637837 0.510796 0.097062
v 0.522881 0.520941 -0.492433
v 0.637837 0.510796 -0.492433
v 0.605405 -0.684472 0.043498
v 0.605405 -0.684472 -0.438868
v 0.484708 -0.962156 0.097063
v 0.484708 -0.962156 -0.492432
v 0.649977 -0.714178 0.097063
v 0.649977 -0.714178 -0.492432
v 0.476091 -0.878501 0.043498
v 0.476091 -0.878501 -0.438868
v 0.457735 -0.586055 0.097063
v 0.457735 -0.586055 -0.492432
v 0.426613 -0.923438 -0.492432
v 0.426613 -0.923438 0.097063
v 0.457735 -0.586055 0.043498
v 0.457735 -0.586055 -0.438868
v 0.433961 -0.850422 0.043498
v 0.433961 -0.850422 -0.438868
v 0.434596 0.408313 0.402635
v 0.453810 0.488625 0.402635
v 0.434596 0.408313 0.320057
v 0.453810 0.488625 0.320057
v 0.815187 0.317257 0.402635
v 0.834401 0.397569 0.402635
v 0.815187 0.317257 0.320057
v 0.834401 0.397569 0.320057
v 0.739015 0.335481 0.320057
v 0.758229 0.415793 0.320057
v 0.739015 0.335481 0.402635
v 0.758229 0.415793 0.402635
v 0.779570 0.504994 0.165150
v 0.855742 0.486770 0.165150
v 0.836528 0.447177 0.144406
v 0.855742 0.486770 0.557541
v 0.836528 0.447177 0.578286
v 0.760356 0.465401 0.578286
v 0.760356 0.465401 0.144406
v 0.779570 0.504994 0.557541
vn -1.0000 -0.0000 -0.0000
vn 0.9207 -0.0797 -0.3821
vn 0.3819 -0.0331 -0.9236
vn 0.3696 -0.9292 -0.0000
vn 0.8933 -0.4494 -0.0000
vn 0.3928 0.9196 -0.0000
vn 0.9496 0.3133 -0.0000
vn 0.3819 -0.0331 0.9236
vn 0.9207 -0.0797 0.3821
vn -0.0000 -1.0000 -0.0000
vn 0.9963 -0.0863 -0.0000
vn -0.0000 -0.0000 1.0000
vn -0.0000 1.0000 -0.0000
vn -0.0000 -0.0000 -1.0000
vn 0.4124 -0.0407 0.9101
vn 0.5018 0.8650 -0.0000
vn 0.4124 -0.0407 -0.9101
vn 0.3230 -0.9464 -0.0000
vn -0.0983 -0.9952 -0.0000
vn 0.9952 -0.0983 -0.0000
vn 0.0982 0.9952 -0.0000
vn 0.0983 0.9952 -0.0000
vn 0.9952 -0.0982 -0.0000
vn 0.0879 0.9961 -0.0000
vn -0.0879 -0.9961 -0.0000
vn 0.9961 -0.0879 -0.0000
vn 0.8321 -0.5546 -0.0000
vn 0.5546 0.8321 -0.0000
vn -0.8321 0.5546 -0.0000
vn 0.9534 -0.2932 -0.0713
vn 0.9726 -0.2327 -0.0000
vn -0.2327 -0.9726 -0.0000
vn 0.2327 0.9726 -0.0000
vn -0.9534 0.2932 0.0713
vn 0.1011 0.4228 -0.9006
vn 0.1011 0.4228 0.9006
vn 0.2002 0.8369 -0.5095
vn 0.9534 -0.2932 0.0713
vn -0.9534 0.2932 -0.0713
vn 0.2002 0.8369 0.5095
vn -0.1864 -0.7789 -0.5988
vn -0.1864 -0.7789 0.5988
vt 0.939197 0.308701
vt 0.506618 0.308701
vt 0.506618 -0.005101
vt 0.939197 -0.005101
vt 0.855074 0.846697
vt 0.855074 0.451862
vt 0.870133 0.437447
vt 0.870133 0.860116
vt 0.885173 0.430480
vt 0.885173 0.864678
vt 0.560953 0.420801
vt 0.874755 0.420801
vt 0.868991 0.436341
vt 0.566718 0.436342
vt 0.580635 0.451862
vt 0.874755 0.875918
vt 0.560953 0.875918
vt 0.566718 0.861298
vt 0.868991 0.861298
vt 0.580635 0.846697
vt 0.550536 0.864678
vt 0.550536 0.430480
vt 0.565575 0.437447
vt 0.565575 0.860116
vt 0.874755 0.346338
vt 0.560953 0.346338
vt 0.439033 0.855023
vt 0.476350 0.424056
vt 0.874755 0.987838
vt 0.560953 0.987838
vt 0.959359 0.424056
vt 0.996675 0.855023
vt 0.033083 0.452704
vt 0.033083 0.516547
vt 0.020946 0.528684
vt 0.020946 0.440567
vt 0.096925 0.516547
vt 0.109062 0.528684
vt 0.096925 0.452704
vt 0.109062 0.440567
vt 0.127970 0.452704
vt 0.127970 0.516547
vt 0.115833 0.528684
vt 0.115833 0.440567
vt 0.191812 0.516547
vt 0.203950 0.528684
vt 0.191813 0.452704
vt 0.203950 0.440567
vt 0.222857 0.452704
vt 0.222857 0.516547
vt 0.210720 0.528684
vt 0.210720 0.440567
vt 0.286700 0.516547
vt 0.298837 0.528684
vt 0.286700 0.452704
vt 0.298837 0.440567
vt 0.210720 0.440567
vt 0.210720 0.528684
vt 0.035684 0.550192
vt 0.035684 0.608833
vt 0.024536 0.619981
vt 0.024536 0.539045
vt 0.094324 0.608833
vt 0.105472 0.619981
vt 0.094324 0.550192
vt 0.105472 0.539045
vt 0.127970 0.547591
vt 0.127970 0.611434
vt 0.115833 0.623571
vt 0.115833 0.535454
vt 0.191812 0.611434
vt 0.203950 0.623571
vt 0.191812 0.547591
vt 0.203950 0.535454
vt 0.203950 0.535454
vt 0.222857 0.547591
vt 0.222857 0.611434
vt 0.210720 0.623571
vt 0.210720 0.535454
vt 0.286700 0.611434
vt 0.298837 0.623571
vt 0.286700 0.547591
vt 0.298837 0.535454
vt 0.210720 0.535454
vt 0.210720 0.623571
vt 0.033083 0.642478
vt 0.033083 0.706321
vt 0.020946 0.718458
vt 0.020946 0.630341
vt 0.096926 0.706321
vt 0.109062 0.718458
vt 0.096926 0.642478
vt 0.109062 0.630341
vt 0.127970 0.642479
vt 0.127970 0.706321
vt 0.115833 0.718458
vt 0.115833 0.630341
vt 0.191813 0.706321
vt 0.203950 0.718458
vt 0.191813 0.642479
vt 0.203950 0.630341
vt 0.203950 0.718458
vt 0.225458 0.645080
vt 0.225458 0.703720
vt 0.214310 0.714868
vt 0.214310 0.633932
vt 0.284099 0.703720
vt 0.295246 0.714868
vt 0.284099 0.645080
vt 0.295246 0.633932
vt 0.295246 0.633932
vt 0.295246 0.714868
vt 0.033083 0.737366
vt 0.033083 0.801208
vt 0.020946 0.813345
vt 0.020946 0.725229
vt 0.096925 0.801208
vt 0.109062 0.813345
vt 0.096925 0.737366
vt 0.109062 0.725229
vt 0.127970 0.737366
vt 0.127970 0.801208
vt 0.115833 0.813345
vt 0.115833 0.725229
vt 0.191812 0.801208
vt 0.203950 0.813345
vt 0.191813 0.737366
vt 0.203950 0.725229
vt 0.222857 0.737366
vt 0.222857 0.801208
vt 0.210720 0.813345
vt 0.210720 0.725229
vt 0.286700 0.801208
vt 0.298837 0.813345
vt 0.286700 0.737366
vt 0.298837 0.725229
vt 0.443797 0.546623
vt 0.418836 0.546623
vt 0.418836 0.419121
vt 0.443797 0.419121
vt 0.418836 0.394161
vt 0.354381 0.419121
vt 0.354381 0.394161
vt 0.329420 0.419121
vt 0.354381 0.546623
vt 0.329420 0.546623
vt 0.354381 0.571583
vt 0.418836 0.571583
vt 0.370331 0.374257
vt 0.370331 0.335874
vt 0.420764 0.335874
vt 0.420764 0.346824
vt 0.486247 0.374257
vt 0.486247 0.324288
vt 0.550702 0.324288
vt 0.550702 0.339389
vt 0.294290 0.339388
vt 0.294290 0.324288
vt 0.358745 0.324288
vt 0.358745 0.374257
vt 0.486247 0.259833
vt 0.358745 0.259833
vt 0.474662 0.335874
vt 0.474662 0.374257
vt 0.483883 0.249129
vt 0.472932 0.249129
vt 0.472932 0.144798
vt 0.483883 0.144798
vt 0.422500 0.249129
vt 0.422500 0.144798
vt 0.424229 0.346824
vt 0.424229 0.335874
vt 0.383982 0.923777
vt 0.364842 0.928034
vt 0.367628 0.880236
vt 0.377270 0.878213
vt 0.380988 0.946012
vt 0.364615 0.939898
vt 0.423084 0.965911
vt 0.405730 0.948934
vt 0.481365 0.948911
vt 0.481803 0.960535
vt 0.353590 0.927819
vt 0.353363 0.939683
vt 0.409916 0.922540
vt 0.482403 0.936983
vt 0.308620 0.926959
vt 0.308393 0.938823
vt 0.429794 0.909972
vt 0.391615 0.874913
vt 0.399119 0.872148
vt 0.485642 0.922249
vt 0.391340 0.865773
vt 0.376995 0.869073
vt 0.366426 0.991687
vt 0.368354 0.985343
vt 0.377768 0.990375
vt 0.375840 0.996720
vt 0.360215 0.982164
vt 0.384379 0.994860
vt 0.347847 0.926305
vt 0.350633 0.878507
vt 0.349482 0.938980
vt 0.345081 0.981246
s 0
usemtl Material
f 1/1/1 2/2/1 4/3/1 3/4/1
f 14/5/2 11/6/2 13/7/2 16/8/2
f 16/8/3 13/7/3 12/9/3 15/10/3
f 6/11/4 12/12/4 13/13/4 7/14/4
f 7/14/5 13/13/5 11/6/5 5/15/5
f 15/16/6 8/17/6 10/18/6 16/19/6
f 16/19/7 10/18/7 9/20/7 14/5/7
f 8/21/8 6/22/8 7/23/8 10/24/8
f 10/24/9 7/23/9 5/15/9 9/20/9
f 3/25/10 12/12/10 6/11/10 1/26/10
f 11/6/11 14/5/11 9/20/11 5/15/11
f 6/22/12 8/21/12 2/27/12 1/28/12
f 15/16/13 4/29/13 2/30/13 8/17/13
f 3/31/14 4/32/14 15/10/14 12/9/14
f 21/33/15 23/34/15 24/35/15 22/36/15
f 23/34/16 27/37/16 28/38/16 24/35/16
f 27/37/17 25/39/17 26/40/17 28/38/17
f 25/39/18 21/33/18 22/36/18 26/40/18
f 19/40/19 26/40/19 22/36/19 17/36/19
f 17/36/12 22/36/12 24/35/12 18/35/12
f 27/37/20 23/34/20 21/33/20 25/39/20
f 18/35/21 24/35/21 28/38/21 20/38/21
f 20/38/14 28/38/14 26/40/14 19/40/14
f 33/41/15 35/42/15 36/43/15 34/44/15
f 35/42/16 39/45/16 40/46/16 36/43/16
f 39/45/17 37/47/17 38/48/17 40/46/17
f 37/47/18 33/41/18 34/44/18 38/48/18
f 31/48/19 38/48/19 34/44/19 29/44/19
f 29/44/12 34/44/12 36/43/12 30/43/12
f 39/45/20 35/42/20 33/41/20 37/47/20
f 30/43/22 36/43/22 40/46/22 32/46/22
f 32/46/14 40/46/14 38/48/14 31/48/14
f 45/49/15 47/50/15 48/51/15 46/52/15
f 47/50/16 51/53/16 52/54/16 48/51/16
f 51/53/17 49/55/17 50/56/17 52/54/17
f 49/55/18 45/49/18 46/52/18 50/56/18
f 43/56/19 50/56/19 46/52/19 41/57/19
f 41/57/12 46/52/12 48/51/12 42/58/12
f 51/53/20 47/50/20 45/49/20 49/55/20
f 42/58/22 48/51/22 52/54/22 44/54/22
f 44/54/14 52/54/14 50/56/14 43/56/14
f 57/59/15 59/60/15 60/61/15 58/62/15
f 59/60/16 63/63/16 64/64/16 60/61/16
f 63/63/17 61/65/17 62/66/17 64/64/17
f 61/65/18 57/59/18 58/62/18 62/66/18
f 55/66/19 62/66/19 58/62/19 53/62/19
f 63/63/20 59/60/20 57/59/20 61/65/20
f 54/61/22 60/61/22 64/64/22 56/64/22
f 56/64/14 64/64/14 62/66/14 55/66/14
f 69/67/15 71/68/15 72/69/15 70/70/15
f 71/68/16 75/71/16 76/72/16 72/69/16
f 75/71/17 73/73/17 74/74/17 76/72/17
f 73/73/18 69/67/18 70/70/18 74/74/18
f 67/75/19 74/74/19 70/70/19 65/70/19
f 65/70/12 70/70/12 72/69/12 66/69/12
f 75/71/20 71/68/20 69/67/20 73/73/20
f 66/69/22 72/69/22 76/72/22 68/72/22
f 68/72/14 76/72/14 74/74/14 67/75/14
f 81/76/15 83/77/15 84/78/15 82/79/15
f 83/77/16 87/80/16 88/81/16 84/78/16
f 87/80/17 85/82/17 86/83/17 88/81/17
f 85/82/18 81/76/18 82/79/18 86/83/18
f 79/83/19 86/83/19 82/79/19 77/84/19
f 77/84/12 82/79/12 84/78/12 78/85/12
f 87/80/20 83/77/20 81/76/20 85/82/20
f 78/85/22 84/78/22 88/81/22 80/81/22
f 80/81/14 88/81/14 86/83/14 79/83/14
f 93/86/15 95/87/15 96/88/15 94/89/15
f 95/87/16 99/90/16 100/91/16 96/88/16
f 99/90/17 97/92/17 98/93/17 100/91/17
f 97/92/18 93/86/18 94/89/18 98/93/18
f 91/93/19 98/93/19 94/89/19 89/89/19
f 89/89/12 94/89/12 96/88/12 90/88/12
f 99/90/23 95/87/23 93/86/23 97/92/23
f 90/88/22 96/88/22 100/91/22 92/91/22
f 92/91/14 100/91/14 98/93/14 91/93/14
f 105/94/15 107/95/15 108/96/15 106/97/15
f 107/95/16 111/98/16 112/99/16 108/96/16
f 111/98/17 109/100/17 110/101/17 112/99/17
f 109/100/18 105/94/18 106/97/18 110/101/18
f 103/101/19 110/101/19 106/97/19 101/97/19
f 101/97/12 106/97/12 108/96/12 102/96/12
f 111/98/23 107/95/23 105/94/23 109/100/23
f 102/96/22 108/96/22 112/99/22 104/102/22
f 104/102/14 112/99/14 110/101/14 103/101/14
f 117/103/15 119/104/15 120/105/15 118/106/15
f 119/104/16 123/107/16 124/108/16 120/105/16
f 123/107/17 121/109/17 122/110/17 124/108/17
f 121/109/18 117/103/18 118/106/18 122/110/18
f 115/111/19 122/110/19 118/106/19 113/106/19
f 123/107/23 119/104/23 117/103/23 121/109/23
f 114/105/22 120/105/22 124/108/22 116/112/22
f 116/112/14 124/108/14 122/110/14 115/111/14
f 129/113/15 131/114/15 132/115/15 130/116/15
f 131/114/16 135/117/16 136/118/16 132/115/16
f 135/117/17 133/119/17 134/120/17 136/118/17
f 133/119/18 129/113/18 130/116/18 134/120/18
f 127/120/19 134/120/19 130/116/19 125/116/19
f 125/116/12 130/116/12 132/115/12 126/115/12
f 135/117/20 131/114/20 129/113/20 133/119/20
f 126/115/22 132/115/22 136/118/22 128/118/22
f 128/118/14 136/118/14 134/120/14 127/120/14
f 141/121/15 143/122/15 144/123/15 142/124/15
f 143/122/16 147/125/16 148/126/16 144/123/16
f 147/125/17 145/127/17 146/128/17 148/126/17
f 145/127/18 141/121/18 142/124/18 146/128/18
f 139/128/19 146/128/19 142/124/19 137/124/19
f 137/124/12 142/124/12 144/123/12 138/123/12
f 147/125/20 143/122/20 141/121/20 145/127/20
f 138/123/22 144/123/22 148/126/22 140/126/22
f 140/126/14 148/126/14 146/128/14 139/128/14
f 153/129/15 155/130/15 156/131/15 154/132/15
f 155/130/16 159/133/16 160/134/16 156/131/16
f 159/133/17 157/135/17 158/136/17 160/134/17
f 157/135/18 153/129/18 154/132/18 158/136/18
f 151/136/19 158/136/19 154/132/19 149/132/19
f 149/132/12 154/132/12 156/131/12 150/131/12
f 159/133/20 155/130/20 153/129/20 157/135/20
f 150/131/21 156/131/21 160/134/21 152/134/21
f 152/134/14 160/134/14 158/136/14 151/136/14
f 161/137/24 162/138/24 164/139/24 163/140/24
f 163/141/14 164/139/14 168/142/14 167/143/14
f 167/144/25 168/142/25 166/145/25 165/146/25
f 165/147/12 166/145/12 162/138/12 161/148/12
f 168/142/26 164/139/26 162/138/26 166/145/26
f 181/149/14 169/150/14 175/151/14 183/152/14
f 178/153/14 174/154/14 172/155/14 179/156/14
f 180/157/12 171/158/12 173/159/12 177/160/12
f 172/161/27 174/154/27 173/159/27 171/162/27
f 170/163/28 169/150/28 173/159/28 174/154/28
f 182/164/28 170/163/28 174/154/28 178/153/28
f 183/165/28 175/166/28 176/167/28 184/168/28
f 169/169/29 170/170/29 176/167/29 175/166/29
f 170/163/12 182/164/12 184/171/12 176/172/12
f 169/150/28 181/149/28 177/160/28 173/159/28
f 192/173/30 191/174/30 199/175/30 198/176/30
f 191/174/31 192/173/31 190/177/31 189/178/31
f 195/179/12 196/180/12 186/181/12 185/182/12
f 193/183/32 191/174/32 189/178/32 195/184/32
f 194/185/33 188/186/33 186/181/33 196/180/33
f 192/173/33 194/185/33 196/180/33 190/177/33
f 187/187/32 193/183/32 195/184/32 185/188/32
f 193/189/34 194/185/34 197/190/34 203/191/34
f 187/192/14 188/186/14 194/185/14 193/189/14
f 203/193/35 197/190/35 198/176/35 199/194/35
f 201/195/36 200/196/36 204/197/36 202/198/36
f 190/177/37 196/180/37 204/197/37 200/196/37
f 189/178/38 190/177/38 200/196/38 201/199/38
f 196/180/39 195/179/39 202/200/39 204/197/39
f 194/185/40 192/173/40 198/176/40 197/190/40
f 191/174/41 193/201/41 203/202/41 199/175/41
f 195/203/42 189/178/42 201/199/42 202/204/42
