# Blender 5.1.0
# www.blender.org
mtllib payphonehandle.mtl
o PayphoneHandle
v 0.030173 0.584857 -0.150238
v -0.143115 0.443433 -0.138013
v 0.030173 0.584857 0.150238
v -0.143115 0.443433 0.138013
v 0.129140 0.248701 -0.063510
v -0.023390 0.161609 -0.089322
v 0.129140 0.248701 0.063510
v -0.023390 0.161609 0.089322
v -0.242104 0.525211 -0.231542
v -0.215521 0.384430 -0.088273
v -0.223307 0.425664 -0.189580
v -0.301446 0.839473 -0.088273
v -0.274862 0.698692 -0.231542
v -0.293660 0.798239 -0.189580
v 0.060100 0.585159 0.077181
v -0.215521 0.384430 0.088273
v -0.242104 0.525211 0.231542
v -0.223307 0.425664 0.189580
v 0.060100 0.585159 -0.077181
v 0.027342 0.758640 0.077181
v 0.027342 0.758640 -0.077181
v -0.274862 0.698692 0.231542
v -0.301446 0.839473 0.088273
v -0.293660 0.798239 0.189580
v 0.037952 0.474997 -0.189580
v 0.045738 0.433763 -0.088273
v 0.019154 0.574544 -0.231542
v -0.040187 0.888806 -0.088273
v -0.032401 0.847572 -0.189580
v -0.013604 0.748025 -0.231542
v -0.013604 0.748025 0.231542
v -0.032401 0.847572 0.189580
v -0.040187 0.888806 0.088273
v 0.045738 0.433763 0.088273
v 0.037952 0.474997 0.189580
v 0.019154 0.574544 0.231542
v -0.199652 0.540934 -0.077181
v -0.199652 0.540934 0.077181
v -0.232410 0.714415 -0.077181
v -0.232410 0.714415 0.077181
v 0.129140 0.000000 -0.063510
v -0.023390 -0.000000 -0.089322
v 0.129140 0.000000 0.063510
v -0.023390 -0.000000 0.089322
v 0.030173 -0.584857 -0.150238
v -0.143115 -0.443433 -0.138013
v 0.030173 -0.584857 0.150238
v -0.143115 -0.443433 0.138013
v 0.129140 -0.248701 -0.063510
v -0.023390 -0.161609 -0.089322
v 0.129140 -0.248701 0.063510
v -0.023390 -0.161609 0.089322
v -0.242104 -0.525211 -0.231542
v -0.215521 -0.384430 -0.088273
v -0.223307 -0.425664 -0.189580
v -0.301446 -0.839473 -0.088273
v -0.274862 -0.698692 -0.231542
v -0.293660 -0.798239 -0.189580
v 0.060100 -0.585159 0.077181
v -0.215521 -0.384430 0.088273
v -0.242104 -0.525211 0.231542
v -0.223307 -0.425664 0.189580
v 0.060100 -0.585159 -0.077181
v 0.027342 -0.758640 0.077181
v 0.027342 -0.758640 -0.077181
v -0.274862 -0.698692 0.231542
v -0.301446 -0.839473 0.088273
v -0.293660 -0.798239 0.189580
v 0.037952 -0.474997 -0.189580
v 0.045738 -0.433763 -0.088273
v 0.019154 -0.574544 -0.231542
v -0.040187 -0.888806 -0.088273
v -0.032401 -0.847572 -0.189580
v -0.013604 -0.748025 -0.231542
v -0.013604 -0.748025 0.231542
v -0.032401 -0.847572 0.189580
v -0.040187 -0.888806 0.088273
v 0.045738 -0.433763 0.088273
v 0.037952 -0.474997 0.189580
v 0.019154 -0.574544 0.231542
v -0.199652 -0.540934 -0.077181
v -0.199652 -0.540934 0.077181
v -0.232410 -0.714415 -0.077181
v -0.232410 -0.714415 0.077181
v -0.230435 -1.296054 -0.076165
v -0.148580 -0.828573 -0.076165
v -0.167388 -1.307093 -0.039210
v -0.085533 -0.839613 -0.039210
v -0.167388 -1.307093 0.034698
v -0.085533 -0.839613 0.034698
v -0.230435 -1.296054 0.071652
v -0.148580 -0.828573 0.071652
v -0.293482 -1.285014 0.034698
v -0.211627 -0.817534 0.034698
v -0.293482 -1.285014 -0.039210
v -0.211627 -0.817534 -0.039210
vn 0.8050 0.0496 -0.5912
vn 0.1615 -0.0665 -0.9846
vn 0.1527 -0.1597 -0.9753
vn 0.7821 0.1012 -0.6149
vn -0.9204 -0.3910 -0.0000
vn -0.9779 -0.2090 -0.0000
vn 0.7821 0.1012 0.6149
vn 0.8050 0.0496 0.5912
vn 0.1527 -0.1597 0.9753
vn 0.1615 -0.0665 0.9846
vn 0.7638 -0.0000 -0.6454
vn 0.1669 -0.0000 -0.9860
vn 0.7143 -0.6758 -0.1818
vn 0.1820 -0.9638 -0.1951
vn 0.1312 -0.6948 -0.7071
vn 0.6422 -0.4838 -0.5946
vn 0.0362 -0.1917 -0.9808
vn 0.6024 -0.0695 -0.7951
vn -0.1820 0.9638 -0.1951
vn 0.4153 0.8912 -0.1827
vn 0.4190 0.6853 -0.5957
vn -0.1312 0.6948 -0.7071
vn 0.5347 0.2837 -0.7960
vn -0.0362 0.1917 -0.9808
vn -0.0362 0.1917 0.9808
vn 0.5347 0.2837 0.7960
vn 0.4190 0.6853 0.5957
vn -0.1312 0.6948 0.7071
vn 0.4153 0.8912 0.1827
vn -0.1820 0.9638 0.1951
vn 0.1820 -0.9638 0.1951
vn 0.7143 -0.6758 0.1818
vn 0.6422 -0.4838 0.5946
vn 0.1312 -0.6948 0.7071
vn 0.6024 -0.0695 0.7951
vn 0.0362 -0.1917 0.9808
vn -0.9419 -0.3142 -0.1190
vn -0.9910 -0.0650 -0.1173
vn -0.9659 -0.0933 -0.2415
vn -0.9316 -0.2639 -0.2499
vn 0.9462 0.3036 -0.1123
vn 0.9915 0.0674 -0.1117
vn 0.9915 0.0674 0.1117
vn 0.9462 0.3036 0.1123
vn -0.9316 -0.2639 0.2499
vn -0.9659 -0.0933 0.2415
vn -0.9910 -0.0650 0.1173
vn -0.9419 -0.3142 0.1190
vn -0.8933 -0.4391 -0.0960
vn -0.8933 -0.4391 0.0960
vn -0.9942 0.0606 -0.0892
vn -0.9942 0.0606 0.0892
vn -0.9809 0.0122 -0.1940
vn -0.9012 -0.3809 -0.2070
vn -0.9012 -0.3809 0.2070
vn -0.9809 0.0122 0.1940
vn 0.1669 -0.0000 0.9860
vn 0.7638 -0.0000 0.6454
vn -1.0000 -0.0000 -0.0000
vn 0.8050 -0.0496 -0.5912
vn 0.7821 -0.1012 -0.6149
vn 0.1527 0.1597 -0.9753
vn 0.1615 0.0665 -0.9846
vn -0.9204 0.3910 -0.0000
vn -0.9779 0.2090 -0.0000
vn 0.8050 -0.0496 0.5912
vn 0.7821 -0.1012 0.6149
vn 0.1615 0.0665 0.9846
vn 0.1527 0.1597 0.9753
vn 0.7143 0.6758 -0.1818
vn 0.6422 0.4838 -0.5946
vn 0.1312 0.6948 -0.7071
vn 0.1820 0.9638 -0.1951
vn 0.6024 0.0695 -0.7951
vn 0.0362 0.1917 -0.9808
vn -0.1820 -0.9638 -0.1951
vn -0.1312 -0.6948 -0.7071
vn 0.4190 -0.6853 -0.5957
vn 0.4153 -0.8912 -0.1827
vn -0.0362 -0.1917 -0.9808
vn 0.5347 -0.2837 -0.7960
vn -0.0362 -0.1917 0.9808
vn -0.1312 -0.6948 0.7071
vn 0.4190 -0.6853 0.5957
vn 0.5347 -0.2837 0.7960
vn -0.1820 -0.9638 0.1951
vn 0.4153 -0.8912 0.1827
vn 0.1820 0.9638 0.1951
vn 0.1312 0.6948 0.7071
vn 0.6422 0.4838 0.5946
vn 0.7143 0.6758 0.1818
vn 0.0362 0.1917 0.9808
vn 0.6024 0.0695 0.7951
vn -0.9419 0.3142 -0.1190
vn -0.9316 0.2639 -0.2499
vn -0.9659 0.0933 -0.2415
vn -0.9910 0.0650 -0.1173
vn 0.9462 -0.3036 -0.1123
vn 0.9915 -0.0674 -0.1117
vn 0.9915 -0.0674 0.1117
vn 0.9462 -0.3036 0.1123
vn -0.9316 0.2639 0.2499
vn -0.9419 0.3142 0.1190
vn -0.9910 0.0650 0.1173
vn -0.9659 0.0933 0.2415
vn -0.8933 0.4391 -0.0960
vn -0.8933 0.4391 0.0960
vn -0.9942 -0.0606 -0.0892
vn -0.9942 -0.0606 0.0892
vn -0.9809 -0.0122 -0.1940
vn -0.9012 0.3809 -0.2070
vn -0.9012 0.3809 0.2070
vn -0.9809 -0.0122 0.1940
vn -0.0000 -0.0000 -1.0000
vn 0.8530 -0.1494 -0.5000
vn 0.8530 -0.1494 0.5000
vn -0.0000 -0.0000 1.0000
vn -0.8530 0.1494 0.5000
vn -0.8530 0.1494 -0.5000
vt 0.284057 0.115153
vt 0.252546 0.135599
vt 0.222005 0.076898
vt 0.256499 0.043367
vt 0.362327 0.059258
vt 0.415578 0.075303
vt 0.389445 0.134540
vt 0.348593 0.128038
vt 0.320654 0.035465
vt 0.311038 0.112745
vt 0.287688 0.167486
vt 0.254956 0.169793
vt 0.066411 0.102975
vt 0.123917 0.102975
vt 0.123917 0.126692
vt 0.066411 0.126692
vt 0.123917 0.150409
vt 0.066411 0.150409
vt 0.123917 0.236028
vt 0.066411 0.236028
vt 0.066411 0.212311
vt 0.123917 0.212311
vt 0.066411 0.188595
vt 0.123917 0.188595
vt 0.123917 0.321647
vt 0.066411 0.321647
vt 0.066411 0.297930
vt 0.123917 0.297930
vt 0.066411 0.274213
vt 0.123917 0.274213
vt 0.123917 0.064790
vt 0.066411 0.064790
vt 0.066411 0.041073
vt 0.123917 0.041073
vt 0.123917 0.383549
vt 0.066411 0.383549
vt 0.066411 0.359832
vt 0.123917 0.359832
vt 0.220314 0.258059
vt 0.220283 0.220513
vt 0.254793 0.218113
vt 0.255107 0.256793
vt 0.175084 0.306188
vt 0.178025 0.338012
vt 0.143261 0.338138
vt 0.152698 0.315720
vt 0.175114 0.408262
vt 0.152976 0.398956
vt 0.143518 0.376865
vt 0.177970 0.375587
vt 0.210883 0.375405
vt 0.210869 0.337818
vt 0.245547 0.337978
vt 0.245391 0.376682
vt 0.213860 0.306217
vt 0.235954 0.398868
vt 0.213722 0.408262
vt 0.236116 0.315668
vt 0.152590 0.257336
vt 0.152704 0.218440
vt 0.187405 0.220744
vt 0.187549 0.258210
vt 0.223609 0.288794
vt 0.184804 0.289210
vt 0.223155 0.186726
vt 0.184477 0.186726
vt 0.245303 0.196038
vt 0.245784 0.279147
vt 0.162253 0.279791
vt 0.162180 0.196172
vt 0.346403 0.165291
vt 0.314623 0.165595
vt 0.385372 0.169793
vt 0.215619 0.888564
vt 0.215619 0.958726
vt 0.192232 0.958726
vt 0.192232 0.888564
vt 0.168845 0.958726
vt 0.168845 0.888564
vt 0.145457 0.958726
vt 0.145457 0.888564
vt 0.122070 0.958726
vt 0.122070 0.888564
vt 0.098682 0.958726
vt 0.098682 0.888564
vt 0.075295 0.958726
vt 0.075295 0.888564
s 1
usemtl Material
f 5/1/1 6/2/2 2/3/3 1/4/4
f 4/5/5 2/6/5 6/7/6 8/8/6
f 1/4/4 3/9/7 7/10/8 5/1/1
f 3/9/7 4/5/9 8/8/10 7/10/8
f 41/11/11 42/12/12 6/2/2 5/1/1
f 26/13/13 10/14/14 11/15/15 25/16/16
f 25/16/16 11/15/15 9/17/17 27/18/18
f 12/19/19 28/20/20 29/21/21 14/22/22
f 14/22/22 29/21/21 30/23/23 13/24/24
f 22/25/25 31/26/26 32/27/27 24/28/28
f 24/28/28 32/27/27 33/29/29 23/30/30
f 16/31/31 34/32/32 35/33/33 18/34/34
f 18/35/34 35/36/33 36/37/35 17/38/36
f 27/18/18 9/17/17 13/24/24 30/23/23
f 34/32/32 16/31/31 10/14/14 26/13/13
f 40/39/37 38/40/38 17/41/39 22/42/40
f 28/20/20 12/19/19 23/30/30 33/29/29
f 31/26/26 22/25/25 17/38/36 36/37/35
f 28/43/20 21/44/41 30/45/23 29/46/21
f 26/47/13 25/48/16 27/49/18 19/50/42
f 15/51/43 20/52/44 31/53/26 36/54/35
f 27/49/18 30/45/23 21/44/41 19/50/42
f 19/50/42 21/44/41 20/52/44 15/51/43
f 33/55/29 20/52/44 21/44/41 28/43/20
f 35/56/33 34/57/32 15/51/43 36/54/35
f 31/53/26 20/52/44 33/55/29 32/58/27
f 34/57/32 26/47/13 19/50/42 15/51/43
f 13/59/45 9/60/46 37/61/47 39/62/48
f 39/62/48 37/61/47 38/40/38 40/39/37
f 23/63/49 12/64/50 39/62/48 40/39/37
f 16/65/51 38/40/38 37/61/47 10/66/52
f 18/67/53 17/41/39 38/40/38 16/65/51
f 22/42/40 24/68/54 23/63/49 40/39/37
f 12/64/50 14/69/55 13/59/45 39/62/48
f 10/66/52 37/61/47 9/60/46 11/70/56
f 7/10/8 8/8/10 44/71/57 43/72/58
f 5/1/1 7/10/8 43/72/58 41/11/11
f 8/8/6 6/7/6 42/73/59 44/71/59
f 49/1/60 45/4/61 46/3/62 50/2/63
f 48/5/64 52/8/65 50/7/65 46/6/64
f 45/4/61 49/1/60 51/10/66 47/9/67
f 47/9/67 51/10/66 52/8/68 48/5/69
f 41/11/11 49/1/60 50/2/63 42/12/12
f 70/13/70 69/16/71 55/15/72 54/14/73
f 69/16/71 71/18/74 53/17/75 55/15/72
f 56/19/76 58/22/77 73/21/78 72/20/79
f 58/22/77 57/24/80 74/23/81 73/21/78
f 66/25/82 68/28/83 76/27/84 75/26/85
f 68/28/83 67/30/86 77/29/87 76/27/84
f 60/31/88 62/34/89 79/33/90 78/32/91
f 62/35/89 61/38/92 80/37/93 79/36/90
f 71/18/74 74/23/81 57/24/80 53/17/75
f 78/32/91 70/13/70 54/14/73 60/31/88
f 84/39/94 66/42/95 61/41/96 82/40/97
f 72/20/79 77/29/87 67/30/86 56/19/76
f 75/26/85 80/37/93 61/38/92 66/25/82
f 72/43/79 73/46/78 74/45/81 65/44/98
f 70/47/70 63/50/99 71/49/74 69/48/71
f 59/51/100 80/54/93 75/53/85 64/52/101
f 71/49/74 63/50/99 65/44/98 74/45/81
f 63/50/99 59/51/100 64/52/101 65/44/98
f 77/55/87 72/43/79 65/44/98 64/52/101
f 79/56/90 80/54/93 59/51/100 78/57/91
f 75/53/85 76/58/84 77/55/87 64/52/101
f 78/57/91 59/51/100 63/50/99 70/47/70
f 57/59/102 83/62/103 81/61/104 53/60/105
f 83/62/103 84/39/94 82/40/97 81/61/104
f 67/63/106 84/39/94 83/62/103 56/64/107
f 60/65/108 54/66/109 81/61/104 82/40/97
f 62/67/110 60/65/108 82/40/97 61/41/96
f 66/42/95 84/39/94 67/63/106 68/68/111
f 56/64/107 83/62/103 57/59/102 58/69/112
f 54/66/109 55/70/113 53/60/105 81/61/104
f 51/10/66 43/72/58 44/71/57 52/8/68
f 49/1/60 41/11/11 43/72/58 51/10/66
f 52/8/65 44/71/59 42/73/59 50/7/65
f 85/74/114 86/75/114 88/76/115 87/77/115
f 87/77/115 88/76/115 90/78/116 89/79/116
f 89/79/116 90/78/116 92/80/117 91/81/117
f 91/81/117 92/80/117 94/82/118 93/83/118
f 93/83/118 94/82/118 96/84/119 95/85/119
f 95/85/119 96/84/119 86/86/114 85/87/114
